<svg width="131" height="41" viewBox="0 0 131 41" fill="none" xmlns="http://www.w3.org/2000/svg">
<path d="M37.5575 29.0667C37.3521 28.5673 37.1596 28.0424 36.9542 27.5942L36.0044 25.456L35.9659 25.4176C33.1421 19.2717 30.1258 13.0234 26.9297 6.87753L26.8014 6.62145C26.4805 6.01966 26.1596 5.35386 25.8259 4.73927C25.4152 4.00945 25.0173 3.22841 24.3626 2.48579C23.7246 1.70876 22.9215 1.08272 22.0115 0.65285C21.1014 0.22298 20.107 0 19.1001 0C18.0932 0 17.0988 0.22298 16.1887 0.65285C15.2787 1.08272 14.4756 1.70876 13.8376 2.48579C13.2343 3.22841 12.785 4.00945 12.3743 4.73927C12.0534 5.40508 11.7325 6.05808 11.3988 6.65986L11.2705 6.91594C8.12577 13.0618 5.05809 19.3101 2.23429 25.456L2.15727 25.5328C1.87489 26.1986 1.54117 26.89 1.22028 27.6327C1.01491 28.0808 0.809547 28.5673 0.60418 29.1051C0.0497292 30.5133 -0.127324 32.0412 0.0904685 33.5384C0.308261 35.0356 0.913383 36.4504 1.8462 37.6433C2.77901 38.8361 4.00732 39.766 5.41007 40.3411C6.81282 40.9162 8.34159 41.1168 9.84572 40.9231C11.2877 40.7337 12.6763 40.2546 13.9274 39.5147C15.596 38.58 17.2004 37.2228 18.9974 35.2638C20.7944 37.2228 22.4373 38.58 24.0674 39.5275C25.635 40.4453 27.4102 40.9519 29.2273 40.9999C31.3315 41.0086 33.3678 40.2577 34.9602 38.8856C36.5527 37.5136 37.5938 35.6132 37.8912 33.5353C38.235 32.042 38.1187 30.48 37.5575 29.0539V29.0667ZM19.1258 31.1921C16.9181 28.3753 15.4805 25.7889 14.9927 23.5738C14.7907 22.753 14.7471 21.9013 14.8644 21.0642C14.9542 20.4113 15.1981 19.8351 15.5318 19.3485C16.302 18.2346 17.6497 17.5432 19.1258 17.5432C19.8268 17.5218 20.5221 17.6744 21.1494 17.9873C21.7767 18.3001 22.3162 18.7635 22.7197 19.3357C23.0534 19.8479 23.2973 20.4113 23.3743 21.0642C23.5027 21.8069 23.4513 22.6647 23.246 23.5738C22.7582 25.7505 21.3206 28.3625 19.1258 31.1921ZM35.4782 33.0871C35.3323 34.1421 34.9119 35.1405 34.2588 35.983C33.6057 36.8254 32.7428 37.4824 31.7559 37.8886C30.7804 38.2983 29.7022 38.4135 28.6497 38.2983C27.6229 38.1703 26.596 37.8374 25.5435 37.2228C23.796 36.1453 22.2246 34.8067 20.8842 33.2536C23.5797 29.9246 25.2098 26.89 25.8259 24.1884C26.1211 22.908 26.1596 21.7557 26.0313 20.6929C25.871 19.6856 25.4944 18.7248 24.9274 17.8761C24.28 16.9558 23.4158 16.2083 22.4109 15.6993C21.406 15.1902 20.2911 14.9353 19.1643 14.9568C16.7897 14.9568 14.6719 16.0579 13.3883 17.8633C12.8105 18.7098 12.4371 19.6783 12.2973 20.6929C12.1304 21.7685 12.1689 22.9592 12.5027 24.1884C13.1188 26.89 14.7874 29.963 17.4443 33.2792C16.1267 34.8619 14.5517 36.2124 12.785 37.274C11.7197 37.8886 10.7057 38.2087 9.67886 38.3367C8.08198 38.5408 6.4689 38.1078 5.19024 37.132C3.91159 36.1562 3.07071 34.7164 2.85039 33.1255C2.72203 32.1012 2.81188 31.0769 3.22262 29.9246C3.35097 29.5148 3.5435 29.1051 3.74887 28.6186C4.03125 27.9527 4.36497 27.2613 4.68586 26.5699L4.7372 26.4803C7.50967 20.3728 10.5388 14.1373 13.6835 8.02988L13.8119 7.7738C14.1328 7.15921 14.4537 6.50621 14.7874 5.89162C15.1211 5.23863 15.4805 4.61123 15.9426 4.09908C16.3425 3.6228 16.8423 3.23977 17.4067 2.97697C17.9711 2.71416 18.5864 2.57796 19.2092 2.57796C19.832 2.57796 20.4473 2.71416 21.0117 2.97697C21.5761 3.23977 22.0759 3.6228 22.4758 4.09908C22.9251 4.61123 23.2973 5.23863 23.631 5.89162C23.9519 6.50621 24.2728 7.17202 24.6065 7.7738L24.7349 8.02988C27.8667 14.1373 30.8959 20.3728 33.7197 26.4803L33.7582 26.5187C34.0919 27.1845 34.3743 27.9271 34.6952 28.5673C34.9006 29.0667 35.1059 29.4636 35.2343 29.8861C35.4782 31.0385 35.6065 32.0628 35.4782 33.0871ZM53.3451 30.9105C52.3779 30.9246 51.42 30.7213 50.5423 30.3156C49.6646 29.91 48.8897 29.3125 48.2751 28.5673C46.8941 26.9796 46.1612 24.9324 46.2215 22.8312C46.2003 20.6842 46.9569 18.6019 48.3521 16.967C48.9975 16.2124 49.8009 15.608 50.7057 15.1966C51.6105 14.7851 52.5947 14.5765 53.589 14.5855C54.5246 14.5599 55.4514 14.7722 56.2822 15.2022C57.1129 15.6322 57.8204 16.266 58.3381 17.0438L58.4665 15.0336H62.2145V30.5007H58.4537L58.3253 28.2472C57.7916 29.0778 57.0539 29.7584 56.1822 30.2245C55.3106 30.6907 54.334 30.9268 53.3451 30.9105ZM54.3206 27.2229C55.0651 27.2229 55.7197 27.0181 56.3358 26.6468C56.9006 26.237 57.3626 25.6993 57.722 25.0463C58.0429 24.3933 58.2098 23.6122 58.2098 22.7416C58.2598 21.9854 58.1123 21.2291 57.7815 20.5469C57.4508 19.8646 56.9482 19.2796 56.323 18.8492C55.7222 18.4758 55.0285 18.2778 54.3206 18.2778C53.6128 18.2778 52.9191 18.4758 52.3183 18.8492C51.7535 19.2589 51.2915 19.7967 50.9321 20.4497C50.5926 21.1698 50.4257 21.9588 50.4443 22.7544C50.3943 23.5106 50.5418 24.2668 50.8726 24.9491C51.2033 25.6313 51.7059 26.2163 52.3311 26.6468C52.9344 27.0181 53.589 27.2229 54.3206 27.2229ZM68.6322 10.8595C68.6322 11.3077 68.5552 11.7174 68.3498 12.0503C68.1444 12.3704 67.8621 12.6649 67.4898 12.8698C67.1176 13.0746 66.7197 13.1514 66.309 13.1514C65.8982 13.1514 65.4875 13.0746 65.1153 12.8698C64.7632 12.6742 64.4672 12.3922 64.2553 12.0503C64.0565 11.6856 63.959 11.2745 63.9729 10.8595C63.9729 10.3986 64.0628 9.98887 64.2553 9.66878C64.4607 9.28466 64.7559 9.05419 65.1153 8.84933C65.4875 8.64446 65.8854 8.55484 66.309 8.55484C66.7175 8.54545 67.1216 8.64197 67.4815 8.83498C67.8415 9.02799 68.1451 9.31087 68.3626 9.65597C68.5494 10.0293 68.642 10.4424 68.6322 10.8595ZM64.2681 30.4495V15.008H68.3498V30.4751H64.2553L64.2681 30.4495ZM79.26 19.054V19.1053C79.0674 19.0156 78.8107 18.9772 78.6182 18.9388C78.3615 18.8876 78.1561 18.8876 77.9122 18.8876C76.7699 18.8876 75.9099 19.2205 75.3451 19.9119C74.729 20.6161 74.4467 21.602 74.4467 22.8696V30.4623H70.3521V14.9952H74.1129L74.2413 17.3383C74.652 16.5189 75.1398 15.9043 75.8329 15.4433C76.5223 14.9955 77.334 14.7718 78.1561 14.8031C78.4513 14.8031 78.7337 14.8287 78.9776 14.88C79.1059 14.9184 79.183 14.9184 79.26 14.9568V19.054ZM80.9029 30.4495V8.65727H84.9846V16.9798C85.5622 16.2372 86.2168 15.661 87.0383 15.2129C88.3387 14.5768 89.8161 14.3964 91.232 14.7007C92.6479 15.005 93.9197 15.7763 94.8422 16.8902C96.2263 18.4812 96.9594 20.5335 96.8959 22.6391C96.917 24.7861 96.1604 26.8685 94.7652 28.5033C94.1199 29.258 93.3165 29.8623 92.4117 30.2737C91.5069 30.6852 90.5227 30.8938 89.5284 30.8848C88.5927 30.9104 87.666 30.6982 86.8352 30.2681C86.0044 29.8381 85.2969 29.2043 84.7792 28.4265L84.6509 30.4367L80.9029 30.4751V30.4495ZM88.7967 27.2229C89.5284 27.2229 90.183 27.0181 90.7991 26.6468C91.3638 26.237 91.8259 25.6993 92.1853 25.0463C92.519 24.3933 92.673 23.6122 92.673 22.7416C92.673 21.8837 92.519 21.1027 92.1853 20.4497C91.8482 19.82 91.3747 19.2732 90.7991 18.8492C90.1983 18.4758 89.5046 18.2778 88.7967 18.2778C88.0889 18.2778 87.3952 18.4758 86.7944 18.8492C86.2168 19.2589 85.7676 19.7967 85.3953 20.4497C85.0559 21.1698 84.8889 21.9588 84.9076 22.7544C84.8575 23.5106 85.0051 24.2668 85.3358 24.9491C85.6666 25.6313 86.1691 26.2163 86.7944 26.6468C87.3977 27.0181 88.0523 27.2229 88.7967 27.2229ZM98.4362 30.4623V14.9952H102.197L102.325 17.0054C102.798 16.2349 103.468 15.6042 104.267 15.1788C105.066 14.7533 105.964 14.5485 106.869 14.5855C107.904 14.5676 108.921 14.8545 109.793 15.4102C110.665 15.9659 111.353 16.7657 111.772 17.7096C112.221 18.6827 112.465 19.8863 112.465 21.2307V30.5007H108.371V21.7685C108.371 20.6929 108.127 19.8479 107.639 19.2205C107.151 18.6059 106.484 18.273 105.637 18.273C105.021 18.273 104.482 18.401 104.007 18.6827C103.558 18.9772 103.185 19.3485 102.903 19.8735C102.617 20.4041 102.476 21 102.492 21.602V30.4623H98.4362ZM114.506 30.4623V8.64446H118.601V16.967C119.155 16.2202 119.877 15.6127 120.708 15.1926C121.539 14.7726 122.457 14.5515 123.388 14.5471C124.356 14.5329 125.314 14.7362 126.191 15.1419C127.069 15.5475 127.844 16.145 128.458 16.8902C129.833 18.4811 130.561 20.5272 130.499 22.6263C130.521 24.7735 129.765 26.8562 128.368 28.4905C127.723 29.2451 126.92 29.8495 126.015 30.2609C125.11 30.6724 124.126 30.881 123.132 30.872C122.196 30.8976 121.269 30.6854 120.438 30.2553C119.608 29.8253 118.9 29.1915 118.382 28.4137L118.267 30.4239L114.506 30.4623ZM122.439 27.2229C123.183 27.2229 123.838 27.0181 124.441 26.6468C125.018 26.237 125.468 25.6993 125.84 25.0463C126.161 24.3933 126.328 23.6122 126.328 22.7416C126.378 21.9854 126.23 21.2291 125.899 20.5469C125.569 19.8646 125.066 19.2796 124.441 18.8492C123.84 18.4758 123.146 18.2778 122.439 18.2778C121.731 18.2778 121.037 18.4758 120.436 18.8492C119.871 19.2589 119.409 19.7967 119.05 20.4497C118.692 21.1634 118.524 21.9571 118.562 22.7544C118.512 23.5106 118.66 24.2668 118.99 24.9491C119.321 25.6313 119.824 26.2163 120.449 26.6468C121.052 27.0181 121.668 27.2229 122.439 27.2229Z" fill="#FF385C"/>
</svg>
