<svg width="100" height="102" viewBox="0 0 100 102" fill="none" xmlns="http://www.w3.org/2000/svg">
<g clip-path="url(#clip0_12_301)">
<path fill-rule="evenodd" clip-rule="evenodd" d="M73.9855 45.631H98.6266V54.5087C98.6266 56.7037 96.8994 58.4965 94.7846 58.4965H85.9212L80.6343 61.2662L73.9854 58.4965V45.631H73.9855Z" fill="#FD4C5C"/>
<path fill-rule="evenodd" clip-rule="evenodd" d="M77.8293 32.7471H94.7864C96.9011 32.7471 98.6284 34.5398 98.6284 36.7348V43.3314H73.9873V36.7348C73.9873 34.5398 75.7146 32.7471 77.8293 32.7471Z" fill="#FD4C5C"/>
<path fill-rule="evenodd" clip-rule="evenodd" d="M73.9873 41.3441H98.6284V47.6132H73.9873V41.3441Z" fill="#FD4C5C"/>
<path fill-rule="evenodd" clip-rule="evenodd" d="M93.4828 41.3434H96.6384H98.6259V36.735C98.6259 35.2352 97.8175 33.9252 96.6384 33.2471C96.0848 32.9311 95.4537 32.7471 94.7837 32.7471H89.6406C91.7554 32.7471 93.4826 34.5398 93.4826 36.7348V41.3434H93.4828Z" fill="#FFC269"/>
<path fill-rule="evenodd" clip-rule="evenodd" d="M93.4834 47.6132H96.6389H98.6265V45.6307V43.3323V41.3441H96.6389H93.4834V43.3323V45.6307V47.6132Z" fill="#FD4C5C"/>
<path fill-rule="evenodd" clip-rule="evenodd" d="M93.4826 47.6132V54.5086C93.4826 56.7036 91.7554 58.4964 89.6406 58.4964H94.7837C95.4535 58.4964 96.0846 58.3182 96.6383 58.0023C97.8175 57.3184 98.6259 56.0084 98.6259 54.5086V47.6132H96.6383H93.4826Z" fill="#FFC269"/>
<path fill-rule="evenodd" clip-rule="evenodd" d="M73.9844 58.4956H85.9203V64.1899C85.9203 65.5576 84.8409 66.6722 83.5288 66.6722H44.667C44.667 63.0924 44.667 61.2708 47.3076 61.2708L52.5669 61.2651C55.8776 61.2594 58.0477 60.3801 59.26 58.4954H73.9844V58.4956Z" fill="#6F6571"/>
<path fill-rule="evenodd" clip-rule="evenodd" d="M49.3574 66.6732H83.5317C85.5357 70.2933 87.1468 74.6432 85.7572 82.9635C83.432 74.758 59.815 78.0334 57.3903 87.5029H31.3319C30.3465 85.1872 29.4164 82.9002 28.6025 80.5904H35.9489C50.8077 74.7751 46.0301 77.3667 49.3574 66.6732Z" fill="#FD4C5C"/>
<path fill-rule="evenodd" clip-rule="evenodd" d="M47.2458 44.43C47.7552 47.2111 48.4472 49.9521 49.2222 52.2849L56.7342 55.3376L65.1106 52.2849C64.8171 35.8452 58.8935 27.9616 53.8557 25.4103C52.0399 23.9764 50.1797 23.4363 50.1797 23.4363C50.1797 23.4363 47.7328 27.4962 47.6054 27.4962C46.6644 29.8176 46.31 32.8459 46.3709 36.1154L47.2458 44.43Z" fill="#ECEAEC"/>
<path fill-rule="evenodd" clip-rule="evenodd" d="M65.1104 52.2858H49.2218C45.5623 52.6994 41.0615 55.5899 41.0615 64.5423V73.9257L44.6673 76.1532L49.3545 73.9257V66.674C49.3545 63.0942 49.3545 61.2726 51.9951 61.2726L57.2544 61.2669C60.565 61.2612 62.7351 60.382 63.9475 58.4972C64.8833 57.0436 65.2431 54.9922 65.1104 52.2858Z" fill="#FD4C5C"/>
<path fill-rule="evenodd" clip-rule="evenodd" d="M65.1114 52.2848C64.8179 35.8451 58.8944 27.9614 53.8565 25.4102C53.1092 25.956 52.2786 26.4042 51.3652 26.7375C55.8274 30.2368 60.3005 38.0574 60.5551 52.2848H65.1114Z" fill="#DAD8DB"/>
<path fill-rule="evenodd" clip-rule="evenodd" d="M65.1114 52.2858H60.5553C60.6882 54.9922 60.3284 57.0436 59.3928 58.4974C58.6288 59.6869 57.4773 60.6924 55.8994 61.2671H57.2559C60.5665 61.2614 62.7366 60.3822 63.9489 58.4974C64.8843 57.0436 65.2441 54.9922 65.1114 52.2858Z" fill="#FD4C5C"/>
<path fill-rule="evenodd" clip-rule="evenodd" d="M57.3877 87.5027C57.3877 79.0043 63.8815 72.2352 71.8922 72.2352C78.4082 72.2352 83.9221 76.7172 85.7546 82.9633C86.1311 84.2446 86.3525 85.6066 86.3912 87.02C86.4079 87.5717 86.0424 87.5027 85.5441 87.5027C76.1606 87.5027 66.7713 87.497 57.3877 87.5027Z" fill="#FD4C5C"/>
<path fill-rule="evenodd" clip-rule="evenodd" d="M61.0371 87.5028H83.1151C82.7996 93.6741 77.9777 98.5814 72.0761 98.5814C66.1745 98.5814 61.3526 93.6741 61.0371 87.5028Z" fill="#6F6571"/>
<path fill-rule="evenodd" clip-rule="evenodd" d="M4.97305 85.0605L23.9673 89.5943C22.7605 95.036 17.5289 98.4376 12.2862 97.185C7.03813 95.9324 3.76619 90.5023 4.97305 85.0605Z" fill="#6F6571"/>
<path fill-rule="evenodd" clip-rule="evenodd" d="M3.55005 79.5378C6.23505 75.4868 10.8964 73.1366 15.7682 73.6423C24.3603 75.5271 27.156 80.8537 27.7151 87.4964C27.7041 88.3984 27.6099 89.3064 27.4216 90.2144C27.3663 90.4672 27.2057 90.3638 26.9399 90.3005L23.9669 89.5936L4.97265 85.0599L3.54986 84.721L1.5625 84.244C1.9445 82.5086 2.63097 80.9228 3.55005 79.5378Z" fill="#ECEAEC"/>
<path fill-rule="evenodd" clip-rule="evenodd" d="M15.751 73.62L23.424 46.0845L26.8785 44.4813L30.7427 46.0845C25.6661 60.6798 27.0832 70.8676 30.5103 80.5902C31.3296 82.9002 32.2597 85.187 33.2396 87.5027H27.72L15.751 73.62Z" fill="#FD4C5C"/>
<path fill-rule="evenodd" clip-rule="evenodd" d="M39.5115 15.2113L48.5133 13.2231C49.4267 13.3093 52.0399 15.5849 52.0399 17.0099L50.1244 27.1116C49.3272 27.3587 48.4802 27.4966 47.6054 27.4966C42.8112 27.4966 38.9248 23.4571 38.9248 18.4808C38.9248 17.3259 39.1295 16.2225 39.5115 15.2113Z" fill="#FFECE4"/>
<path fill-rule="evenodd" clip-rule="evenodd" d="M36.6055 15.2107C36.6055 8.78656 41.5104 3.5863 47.5669 3.5863C53.6234 3.5863 58.5284 8.78656 58.5284 15.2107C58.5284 19.4513 56.8675 23.2208 53.8558 25.4101C52.7819 26.1974 51.5306 26.7778 50.1245 27.111V17.0092C50.1245 15.5841 49.4271 15.2969 48.5135 15.2105H39.5119H36.6055V15.2107Z" fill="#FD4C5C"/>
<path fill-rule="evenodd" clip-rule="evenodd" d="M41.8311 5.30432C43.4975 4.21252 45.4628 3.5863 47.5664 3.5863C53.6229 3.5863 58.5279 8.78656 58.5279 15.2107C58.5279 19.4513 56.867 23.2208 53.8553 25.4101C53.0913 25.9675 52.2443 26.4215 51.3142 26.7548C53.5396 24.416 54.7465 21.0604 54.7465 17.3597C54.7465 10.6483 49.6146 5.2066 43.2868 5.2066C42.7943 5.2066 42.3071 5.23531 41.8311 5.30432Z" fill="#FD4C5C"/>
<path fill-rule="evenodd" clip-rule="evenodd" d="M41.0605 73.9247H49.3536V79.3434C49.3536 80.5042 48.7447 80.5903 47.8478 80.5903H35.9453C35.707 75.1543 38.8792 73.9247 41.0605 73.9247Z" fill="#6F6571"/>
<path fill-rule="evenodd" clip-rule="evenodd" d="M30.5103 80.5901C27.0835 70.8677 25.6662 60.6798 30.7427 46.0845H27.8971C27.8861 46.0845 27.8749 46.0845 27.8639 46.0845H26.8398C21.7633 60.6798 23.1749 70.8675 26.6072 80.5901C27.4211 82.9001 28.3512 85.187 29.3366 87.5027H31.3296H33.2396C32.2597 85.187 31.3296 82.8999 30.5103 80.5901Z" fill="#FD4C5C"/>
<path fill-rule="evenodd" clip-rule="evenodd" d="M27.716 87.4969L15.7691 73.6429C14.5346 73.5164 13.311 73.5682 12.1318 73.7923L23.6137 87.106C23.6027 87.8817 23.5306 88.6689 23.3867 89.4562L23.968 89.594L26.941 90.3008C27.2068 90.3639 27.3673 90.4676 27.4227 90.2147C27.6108 89.3069 27.7048 88.399 27.716 87.4969Z" fill="#DAD8DB"/>
<path fill-rule="evenodd" clip-rule="evenodd" d="M83.5297 66.6732H49.3555V69.7933H77.4346C79.7209 69.7933 80.806 70.8161 81.6974 72.8906C82.4669 74.6892 82.4836 75.2753 82.8323 77.4473C84.1443 79.0275 85.1519 80.9008 85.7554 82.9635C87.1448 74.643 85.5338 70.2933 83.5297 66.6732Z" fill="#FFC269"/>
<path fill-rule="evenodd" clip-rule="evenodd" d="M82.8334 77.4469C80.1761 74.2462 76.2621 72.2352 71.8942 72.2352C70.798 72.2352 69.735 72.3617 68.7109 72.5972C75.2491 74.1314 79.822 80.1189 80.0212 87.02C80.0322 87.3993 79.8661 87.4854 79.6005 87.5027H83.1159H85.5463C86.0445 87.5027 86.41 87.5717 86.3933 87.02C86.3547 85.6066 86.1332 84.2446 85.7567 82.9633C85.7457 82.923 85.7346 82.8886 85.7236 82.8542C85.7236 82.8542 85.7236 82.8542 85.7236 82.8485C85.1144 80.8314 84.1235 78.9984 82.8334 77.4469Z" fill="#FD4C5C"/>
<path fill-rule="evenodd" clip-rule="evenodd" d="M23.3853 89.4563L4.97205 85.0605C4.76731 85.9626 4.69527 86.8706 4.72844 87.7555L19.3436 91.2435L19.9194 91.3813C19.3768 93.8522 17.9984 95.9034 16.1659 97.2884C19.9027 96.6046 23.0639 93.674 23.9663 89.5943L23.3853 89.4563Z" fill="#5D5360"/>
<path fill-rule="evenodd" clip-rule="evenodd" d="M79.5997 87.503H61.0371C61.098 88.7096 61.3361 89.8704 61.7181 90.9563H74.6504H78.1657C78.0274 93.657 77.0309 96.1106 75.4586 98.0241C79.7269 96.5703 82.8658 92.4388 83.1149 87.5028H79.5997V87.503Z" fill="#5D5360"/>
<path fill-rule="evenodd" clip-rule="evenodd" d="M85.9203 64.1906V58.4962H78.4189V64.1906C78.4189 65.5582 77.3394 66.6728 76.0273 66.6728H83.5288C84.8409 66.673 85.9203 65.5582 85.9203 64.1906Z" fill="#5D5360"/>
<path fill-rule="evenodd" clip-rule="evenodd" d="M38.9688 17.5154H46.365C47.2784 17.6015 47.976 17.8947 47.976 19.3197V27.4849C48.7178 27.4505 49.4375 27.3241 50.124 27.1113V17.0097C50.124 15.5846 49.4265 15.2974 48.5129 15.2111H39.5113C39.24 15.9352 39.0518 16.7108 38.9688 17.5154Z" fill="#FFDDCE"/>
<path fill-rule="evenodd" clip-rule="evenodd" d="M21.8223 37.4142L32.1803 40.9653C32.6897 41.4363 32.1139 46.2402 31.7706 46.0851H23.4221H19.7295V38.1784C19.7295 36.6213 20.5102 36.9659 21.8223 37.4142Z" fill="#FD4C5C"/>
<path fill-rule="evenodd" clip-rule="evenodd" d="M37.0106 46.0836H36.1414H31.7735C28.9611 46.0836 28.878 41.2453 32.1832 40.9638L37.0106 40.5615L38.306 43.4059L37.0106 46.0836Z" fill="#FFECE4"/>
<path fill-rule="evenodd" clip-rule="evenodd" d="M46.3714 36.1154L48.1041 34.5696C52.4443 30.691 57.9307 37.2359 52.1289 41.1432L47.2461 44.43L44.788 46.0849H37.0098V40.5628L41.8427 40.1548L46.3714 36.1154Z" fill="#FD4C5C"/>
<path fill-rule="evenodd" clip-rule="evenodd" d="M37.0081 46.0843V43.4066H35.9728H35.4138H34.5391H30.1712C30.0051 43.4066 29.85 43.3952 29.7006 43.3606C29.54 44.6936 30.2654 46.0843 31.7712 46.0843H36.1391H37.0081Z" fill="#FFDDCE"/>
<path fill-rule="evenodd" clip-rule="evenodd" d="M52.1289 41.1435C55.6387 38.7761 55.0186 35.4492 53.0203 34.0471C53.1809 35.4836 52.5221 37.1328 50.529 38.4717L46.7257 41.0287L45.6517 41.7585L43.1936 43.4077H37.0098V46.0854H44.788L47.2461 44.4305L52.1289 41.1435Z" fill="#FD4C5C"/>
<path fill-rule="evenodd" clip-rule="evenodd" d="M32.1841 40.9644L28.0154 39.5393C26.6203 41.0908 25.9449 44.1132 26.8418 46.0842H30.7446H31.7744C30.2686 46.0842 29.5435 44.6936 29.7038 43.3605C29.8477 42.2056 30.6506 41.0965 32.1841 40.9644Z" fill="#FFC269"/>
</g>
<defs>
<clipPath id="clip0_12_301">
<rect width="97.0644" height="100.667" fill="white" transform="translate(1.5625 0.75)"/>
</clipPath>
</defs>
</svg>
