<svg width="151" height="224" viewBox="0 0 151 224" fill="none" xmlns="http://www.w3.org/2000/svg">
<mask id="mask0_5_608" style="mask-type:alpha" maskUnits="userSpaceOnUse" x="-73" y="0" width="224" height="224">
<rect x="-73" width="224" height="224" fill="url(#paint0_linear_5_608)"/>
</mask>
<g mask="url(#mask0_5_608)">
<circle cx="11" cy="22" r="3" fill="#FFC83E"/>
<circle cx="29" cy="22" r="3" fill="#FFC83E"/>
<circle cx="47" cy="22" r="3" fill="#FFC83E"/>
<circle cx="65" cy="22" r="3" fill="#FFC83E"/>
<circle cx="83" cy="22" r="3" fill="#FFC83E"/>
<circle cx="101" cy="22" r="3" fill="#FFC83E"/>
<circle cx="119" cy="22" r="3" fill="#FFC83E"/>
<circle cx="137" cy="22" r="3" fill="#FFC83E"/>
<circle cx="11" cy="40" r="3" fill="#FFC83E"/>
<circle cx="29" cy="40" r="3" fill="#FFC83E"/>
<circle cx="47" cy="40" r="3" fill="#FFC83E"/>
<circle cx="65" cy="40" r="3" fill="#FFC83E"/>
<circle cx="83" cy="40" r="3" fill="#FFC83E"/>
<circle cx="101" cy="40" r="3" fill="#FFC83E"/>
<circle cx="119" cy="40" r="3" fill="#FFC83E"/>
<circle cx="137" cy="40" r="3" fill="#FFC83E"/>
<circle cx="11" cy="58" r="3" fill="#FFC83E"/>
<circle cx="29" cy="58" r="3" fill="#FFC83E"/>
<circle cx="47" cy="58" r="3" fill="#FFC83E"/>
<circle cx="65" cy="58" r="3" fill="#FFC83E"/>
<circle cx="83" cy="58" r="3" fill="#FFC83E"/>
<circle cx="101" cy="58" r="3" fill="#FFC83E"/>
<circle cx="119" cy="58" r="3" fill="#FFC83E"/>
<circle cx="137" cy="58" r="3" fill="#FFC83E"/>
<circle cx="11" cy="76" r="3" fill="#FFC83E"/>
<circle cx="29" cy="76" r="3" fill="#FFC83E"/>
<circle cx="47" cy="76" r="3" fill="#FFC83E"/>
<circle cx="65" cy="76" r="3" fill="#FFC83E"/>
<circle cx="83" cy="76" r="3" fill="#FFC83E"/>
<circle cx="101" cy="76" r="3" fill="#FFC83E"/>
<circle cx="119" cy="76" r="3" fill="#FFC83E"/>
<circle cx="137" cy="76" r="3" fill="#FFC83E"/>
<circle cx="11" cy="94" r="3" fill="#FFC83E"/>
<circle cx="29" cy="94" r="3" fill="#FFC83E"/>
<circle cx="47" cy="94" r="3" fill="#FFC83E"/>
<circle cx="65" cy="94" r="3" fill="#FFC83E"/>
<circle cx="83" cy="94" r="3" fill="#FFC83E"/>
<circle cx="101" cy="94" r="3" fill="#FFC83E"/>
<circle cx="119" cy="94" r="3" fill="#FFC83E"/>
<circle cx="137" cy="94" r="3" fill="#FFC83E"/>
<circle cx="11" cy="112" r="3" fill="#FFC83E"/>
<circle cx="29" cy="112" r="3" fill="#FFC83E"/>
<circle cx="47" cy="112" r="3" fill="#FFC83E"/>
<circle cx="65" cy="112" r="3" fill="#FFC83E"/>
<circle cx="83" cy="112" r="3" fill="#FFC83E"/>
<circle cx="101" cy="112" r="3" fill="#FFC83E"/>
<circle cx="119" cy="112" r="3" fill="#FFC83E"/>
<circle cx="137" cy="112" r="3" fill="#FFC83E"/>
<circle cx="11" cy="130" r="3" fill="#FFC83E"/>
<circle cx="29" cy="130" r="3" fill="#FFC83E"/>
<circle cx="47" cy="130" r="3" fill="#FFC83E"/>
<circle cx="65" cy="130" r="3" fill="#FFC83E"/>
<circle cx="83" cy="130" r="3" fill="#FFC83E"/>
<circle cx="101" cy="130" r="3" fill="#FFC83E"/>
<circle cx="119" cy="130" r="3" fill="#FFC83E"/>
<circle cx="137" cy="130" r="3" fill="#FFC83E"/>
<circle cx="11" cy="148" r="3" fill="#FFC83E"/>
<circle cx="29" cy="148" r="3" fill="#FFC83E"/>
<circle cx="47" cy="148" r="3" fill="#FFC83E"/>
<circle cx="65" cy="148" r="3" fill="#FFC83E"/>
<circle cx="83" cy="148" r="3" fill="#FFC83E"/>
<circle cx="101" cy="148" r="3" fill="#FFC83E"/>
<circle cx="119" cy="148" r="3" fill="#FFC83E"/>
<circle cx="137" cy="148" r="3" fill="#FFC83E"/>
<circle cx="11" cy="166" r="3" fill="#FFC83E"/>
<circle cx="29" cy="166" r="3" fill="#FFC83E"/>
<circle cx="47" cy="166" r="3" fill="#FFC83E"/>
<circle cx="65" cy="166" r="3" fill="#FFC83E"/>
<circle cx="83" cy="166" r="3" fill="#FFC83E"/>
<circle cx="101" cy="166" r="3" fill="#FFC83E"/>
<circle cx="119" cy="166" r="3" fill="#FFC83E"/>
<circle cx="137" cy="166" r="3" fill="#FFC83E"/>
<circle cx="11" cy="184" r="3" fill="#FFC83E"/>
<circle cx="29" cy="184" r="3" fill="#FFC83E"/>
<circle cx="47" cy="184" r="3" fill="#FFC83E"/>
<circle cx="65" cy="184" r="3" fill="#FFC83E"/>
<circle cx="83" cy="184" r="3" fill="#FFC83E"/>
<circle cx="101" cy="184" r="3" fill="#FFC83E"/>
<circle cx="119" cy="184" r="3" fill="#FFC83E"/>
<circle cx="137" cy="184" r="3" fill="#FFC83E"/>
<circle cx="11" cy="202" r="3" fill="#FFC83E"/>
<circle cx="29" cy="202" r="3" fill="#FFC83E"/>
<circle cx="47" cy="202" r="3" fill="#FFC83E"/>
<circle cx="65" cy="202" r="3" fill="#FFC83E"/>
<circle cx="83" cy="202" r="3" fill="#FFC83E"/>
<circle cx="101" cy="202" r="3" fill="#FFC83E"/>
<circle cx="119" cy="202" r="3" fill="#FFC83E"/>
<circle cx="137" cy="202" r="3" fill="#FFC83E"/>
</g>
<defs>
<linearGradient id="paint0_linear_5_608" x1="-73" y1="112" x2="151" y2="112" gradientUnits="userSpaceOnUse">
<stop stop-color="#FD4C5C"/>
<stop offset="1" stop-color="#FD4C5C" stop-opacity="0.06"/>
</linearGradient>
</defs>
</svg>
