<svg width="226" height="157" viewBox="0 0 226 157" fill="none" xmlns="http://www.w3.org/2000/svg">
<path d="M172.411 144.478C173.533 148.567 171.13 152.813 166.985 153.706C142.955 158.877 117.927 157.531 94.5171 149.738C68.6736 141.135 45.9616 125.062 29.253 103.551C12.5444 82.0401 2.58979 56.0576 0.647913 28.8892C-1.29396 1.7208 4.86415 -25.4133 18.3435 -49.0819C31.8229 -72.7504 52.0181 -91.8904 76.3753 -104.081C100.732 -116.272 128.158 -120.967 155.183 -117.571C182.208 -114.175 207.62 -102.842 228.204 -85.004C246.85 -68.8455 260.776 -48.007 268.589 -24.7014C269.936 -20.681 267.51 -16.4482 263.421 -15.3266C259.331 -14.2049 255.13 -16.6209 253.755 -20.6317C246.764 -41.0112 234.498 -59.2305 218.147 -73.3996C199.859 -89.2486 177.281 -99.3183 153.269 -102.335C129.257 -105.353 104.889 -101.182 83.248 -90.3498C61.6066 -79.5182 43.6632 -62.5123 31.6868 -41.4828C19.7103 -20.4533 14.2389 3.65534 15.9642 27.7945C17.6896 51.9336 26.5342 75.019 41.3798 94.1314C56.2254 113.244 76.405 127.525 99.367 135.168C119.895 142.002 141.823 143.256 162.917 138.871C167.069 138.008 171.29 140.389 172.411 144.478Z" fill="#FFC83E"/>
</svg>
