<svg width="191" height="122" viewBox="0 0 191 122" fill="none" xmlns="http://www.w3.org/2000/svg">
<path d="M179.775 -38.9188C182.645 -41.0868 186.747 -40.5284 188.729 -37.527C198.683 -22.4537 204.507 -4.98564 205.558 13.1237C206.734 33.405 201.87 53.5798 191.581 71.0967C181.291 88.6136 166.038 102.686 147.751 111.534C129.464 120.383 108.963 123.609 88.8422 120.807C68.7211 118.004 49.8829 109.297 34.7099 95.7882C19.5369 82.2791 8.71059 64.574 3.59999 44.9119C-1.51061 25.2498 -0.675951 4.51376 5.99842 -14.674C11.958 -31.8068 22.3345 -47.0181 36.0282 -58.7976C38.7549 -61.143 42.8543 -60.5589 45.0223 -57.6892C47.1903 -54.8195 46.6035 -50.7529 43.8985 -48.3824C32.2495 -38.1737 23.413 -25.0943 18.2999 -10.395C12.4719 6.35978 11.743 24.4665 16.2056 41.6354C20.6682 58.8044 30.1217 74.2644 43.3708 86.0606C56.6198 97.8568 73.0693 105.459 90.6391 107.907C108.209 110.354 126.11 107.536 142.078 99.8101C158.047 92.0838 171.365 79.7958 180.35 64.5C189.335 49.2042 193.582 31.5876 192.555 13.878C191.654 -1.65912 186.728 -16.6556 178.312 -29.6592C176.358 -32.6786 176.905 -36.7508 179.775 -38.9188Z" fill="#00BB98"/>
</svg>
