<svg width="117" height="36" viewBox="0 0 117 36" fill="none" xmlns="http://www.w3.org/2000/svg">
<path d="M86.7026 33.9338L96.3703 23.1691L86.7026 12.4028H96.903L101.691 17.6323L106.302 12.4028H116.147L106.525 23.1246L116.279 33.9338H106.036L101.292 28.6613L96.5916 33.9338H86.7026Z" fill="#FF6600"/>
<path d="M86.7026 7.57629H75.7531V12.4028H86.7026V19.6767H75.7531V26.3532H86.7026V33.9338H67.7053V0.0166626H86.7026V7.57629Z" fill="#FF6600"/>
<path d="M59.6921 0.0166016V13.8971H59.6039C57.8298 11.8762 55.6131 11.174 53.041 11.174C47.7724 11.174 43.8037 14.7233 42.4106 19.4159C40.8219 14.2453 36.7247 11.0771 30.6492 11.0771C25.7153 11.0771 21.8191 13.2718 19.7859 16.8481V12.4032H9.58745V7.57723H20.7168V0.0166016H0.496338V33.9343H9.58745V19.6766H18.6488C18.3787 20.724 18.2345 21.8454 18.2345 23.0286C18.2345 30.1038 23.6886 35.0681 30.6492 35.0681C36.5024 35.0681 40.3597 32.3449 42.4 27.3801H34.6093C33.5554 28.8715 32.756 29.3146 30.6492 29.3146C28.2062 29.3146 26.0998 27.2023 26.0998 24.6984H41.9635C42.6515 30.318 47.0688 35.1645 53.1307 35.1645C55.7456 35.1645 58.1397 33.8898 59.6039 31.7376H59.6921V33.9333H67.7061V0.0166016H59.6921ZM26.3529 19.778C26.8584 17.6238 28.5444 16.2157 30.6492 16.2157C32.9662 16.2157 34.5665 17.5803 34.9873 19.778C35.1647 19.778 26.3529 19.778 26.3529 19.778ZM54.8288 28.7696C51.8747 28.7696 50.039 26.042 50.039 23.194C50.039 20.1496 51.6358 17.2222 54.8288 17.2222C58.1397 17.2222 59.4588 20.1496 59.4588 23.194C59.4583 26.0809 58.0606 28.7696 54.8288 28.7696Z" fill="#652C8F"/>
</svg>
