<svg width="121" height="40" viewBox="0 0 121 40" fill="none" xmlns="http://www.w3.org/2000/svg">
<path d="M51.8625 21.2697C51.8625 26.9316 47.3919 31.1038 41.9055 31.1038C36.419 31.1038 31.9484 26.9316 31.9484 21.2697C31.9484 15.5678 36.419 11.4355 41.9055 11.4355C47.3919 11.4355 51.8625 15.5678 51.8625 21.2697ZM47.5038 21.2697C47.5038 17.7315 44.9127 15.3107 41.9055 15.3107C38.8982 15.3107 36.3071 17.7315 36.3071 21.2697C36.3071 24.7724 38.8982 27.2287 41.9055 27.2287C44.9127 27.2287 47.5038 24.7679 47.5038 21.2697Z" fill="#EA4335"/>
<path d="M73.3431 21.2697C73.3431 26.9316 68.8725 31.1038 63.3861 31.1038C57.8996 31.1038 53.429 26.9316 53.429 21.2697C53.429 15.5723 57.8996 11.4355 63.3861 11.4355C68.8725 11.4355 73.3431 15.5678 73.3431 21.2697ZM68.9844 21.2697C68.9844 17.7315 66.3933 15.3107 63.3861 15.3107C60.3788 15.3107 57.7877 17.7315 57.7877 21.2697C57.7877 24.7724 60.3788 27.2287 63.3861 27.2287C66.3933 27.2287 68.9844 24.7679 68.9844 21.2697Z" fill="#FBBC05"/>
<path d="M93.9285 12.0297V29.685C93.9285 36.9476 89.6056 39.9138 84.4951 39.9138C79.6843 39.9138 76.789 36.7259 75.697 34.1188L79.4919 32.5537C80.1677 34.1543 81.8234 36.0431 84.4906 36.0431C87.7619 36.0431 89.7891 34.0434 89.7891 30.2791V28.8648H89.6369C88.6614 30.0574 86.7818 31.0994 84.41 31.0994C79.4472 31.0994 74.9005 26.8164 74.9005 21.3052C74.9005 15.7541 79.4472 11.4355 84.41 11.4355C86.7774 11.4355 88.6569 12.4775 89.6369 13.6347H89.7891V12.0341H93.9285V12.0297ZM90.0979 21.3052C90.0979 17.8424 87.7664 15.3107 84.7994 15.3107C81.7921 15.3107 79.2726 17.8424 79.2726 21.3052C79.2726 24.7325 81.7921 27.2287 84.7994 27.2287C87.7664 27.2287 90.0979 24.7325 90.0979 21.3052Z" fill="#4285F4"/>
<path d="M100.752 1.68118V30.5008H96.5011V1.68118H100.752Z" fill="#34A853"/>
<path d="M117.32 24.5065L120.703 26.7411C119.611 28.3417 116.98 31.0996 112.433 31.0996C106.795 31.0996 102.584 26.781 102.584 21.2654C102.584 15.4172 106.831 11.4313 111.946 11.4313C117.096 11.4313 119.616 15.4926 120.439 17.6873L120.891 18.8047L107.623 24.2494C108.639 26.2224 110.218 27.2289 112.433 27.2289C114.653 27.2289 116.192 26.147 117.32 24.5065ZM106.907 20.9684L115.776 17.3193C115.288 16.0912 113.821 15.2355 112.093 15.2355C109.878 15.2355 106.795 17.173 106.907 20.9684Z" fill="#EA4335"/>
<path d="M15.8563 18.7115V14.5393H30.0468C30.1855 15.2664 30.2571 16.1266 30.2571 17.0577C30.2571 20.1879 29.3934 24.0586 26.6099 26.8165C23.9025 29.6097 20.4432 31.0995 15.8608 31.0995C7.36705 31.0995 0.224823 24.2449 0.224823 15.8295C0.224823 7.4142 7.36705 0.55957 15.8608 0.55957C20.5596 0.55957 23.9069 2.38629 26.4219 4.76723L23.4505 7.71127C21.647 6.0353 19.2036 4.73176 15.8563 4.73176C9.65382 4.73176 4.80283 9.6843 4.80283 15.8295C4.80283 21.9748 9.65382 26.9273 15.8563 26.9273C19.8794 26.9273 22.1706 25.3267 23.6384 23.8724C24.8288 22.693 25.612 21.0082 25.9207 18.7071L15.8563 18.7115Z" fill="#4285F4"/>
</svg>
