<svg width="123" height="30" viewBox="0 0 123 30" fill="none" xmlns="http://www.w3.org/2000/svg">
<path d="M13.6846 0.806274V10.6686H4.74631V0.806274H0.502747V24.3485H4.74631V14.8065H13.6846V24.3485H17.9282V0.806274H13.6846Z" fill="#33475B"/>
<path d="M31.5098 16.7382C31.5098 17.6817 31.1399 18.5866 30.4816 19.2537C29.8232 19.9209 28.9302 20.2957 27.9992 20.2957C27.0681 20.2957 26.1751 19.9209 25.5168 19.2537C24.8584 18.5866 24.4885 17.6817 24.4885 16.7382V6.65472H20.4633V16.7382C20.4633 18.7616 21.2565 20.702 22.6683 22.1327C24.0802 23.5635 25.9952 24.3672 27.9919 24.3672C29.9886 24.3672 31.9035 23.5635 33.3154 22.1327C34.7273 20.702 35.5205 18.7616 35.5205 16.7382V6.65472H31.5098V16.7382Z" fill="#33475B"/>
<path d="M61.3333 7.69353C61.3333 5.62668 62.6827 4.97144 64.1609 4.97144C65.3523 4.97144 66.9262 5.89004 67.9554 7.00458L70.5918 3.85691C69.2757 2.05342 66.606 0.806152 64.4208 0.806152C60.0546 0.806152 56.8964 3.39761 56.8964 7.69353C56.8964 15.6638 66.5104 13.1356 66.5104 17.5958C66.5104 18.9716 65.1922 20.1873 63.6827 20.1873C61.3021 20.1873 60.5307 19.0074 59.4371 17.7602L56.5117 20.8425C58.383 23.1706 60.6908 24.3526 63.4561 24.3526C67.604 24.3526 70.9411 21.7295 70.9411 17.6295C70.9411 8.78067 61.3271 11.5301 61.3271 7.69353" fill="#33475B"/>
<path d="M120.809 20.5875C118.43 20.5875 117.755 19.5446 117.755 17.9476V10.879H121.451V7.29731H117.755V2.57159L113.673 4.42775V18.8261C113.673 22.5089 116.181 24.3651 119.62 24.3651C120.159 24.3751 120.698 24.3313 121.229 24.2345L122.225 20.5201C121.776 20.5517 121.26 20.5833 120.809 20.5833" fill="#33475B"/>
<path d="M46.8309 6.77326C44.837 6.77326 43.446 7.35897 42.1008 8.69684V0.947754H38.0693V15.3103C38.0693 20.6871 41.9054 24.3699 46.2155 24.3699C50.9975 24.3699 55.2037 20.6217 55.2037 15.5737C55.2037 10.5888 51.3323 6.77537 46.8309 6.77537V6.77326ZM46.806 20.2594C45.9013 20.2594 45.0169 19.9875 44.2647 19.4782C43.5125 18.9689 42.9262 18.245 42.58 17.398C42.2338 16.5511 42.1432 15.6191 42.3197 14.72C42.4962 13.8208 42.9318 12.9949 43.5715 12.3467C44.2113 11.6985 45.0263 11.257 45.9136 11.0782C46.8009 10.8993 47.7206 10.9911 48.5564 11.3419C49.3922 11.6928 50.1066 12.2869 50.6092 13.0491C51.1118 13.8113 51.3801 14.7075 51.3801 15.6242C51.3801 16.8536 50.8982 18.0325 50.0404 18.9018C49.1825 19.771 48.0191 20.2594 46.806 20.2594Z" fill="#33475B"/>
<path d="M90.6058 15.3588C90.6058 10.3023 86.408 6.56262 81.6176 6.56262C77.3075 6.56262 73.4715 10.2454 73.4715 15.6222V29.9932H77.5029V22.2335C78.8461 23.5693 80.2391 24.1571 82.2309 24.1571C86.7323 24.1571 90.6037 20.3458 90.6037 15.3588H90.6058ZM86.7885 15.3083C86.7885 16.225 86.5202 17.1211 86.0176 17.8834C85.515 18.6456 84.8006 19.2397 83.9648 19.5905C83.129 19.9414 82.2092 20.0332 81.3219 19.8543C80.4346 19.6755 79.6196 19.234 78.9799 18.5858C78.3402 17.9375 77.9046 17.1116 77.7281 16.2125C77.5516 15.3134 77.6422 14.3814 77.9884 13.5345C78.3346 12.6875 78.9208 11.9636 79.6731 11.4543C80.4253 10.945 81.3096 10.6731 82.2143 10.6731C83.4275 10.6731 84.5909 11.1615 85.4487 12.0307C86.3065 12.9 86.7885 14.0789 86.7885 15.3083Z" fill="#33475B"/>
</svg>
