<svg width="178" height="39" viewBox="0 0 178 39" fill="none" xmlns="http://www.w3.org/2000/svg">
<path d="M63.2933 22.3759L62.2396 25.3708H62.1518C61.9762 24.6955 61.6542 23.6678 61.1274 22.4346L55.4784 8.19398H49.9465V30.8909H53.6052V16.8852C53.6052 16.0043 53.6052 15.006 53.5759 13.7728C53.5466 13.1562 53.4881 12.6864 53.4588 12.334H53.5466C53.7222 13.2149 53.9271 13.8609 54.0735 14.2719L60.864 30.8322H63.4397L70.1716 14.1251C70.318 13.7434 70.4643 12.98 70.6107 12.334H70.6985C70.6107 14.0077 70.5521 15.5052 70.5229 16.4154V30.8029H74.4157V8.13525H69.0887L63.2933 22.3759ZM78.1036 14.5362H81.9086V30.8029H78.1036V14.5362ZM80.0354 7.66546C79.3915 7.66546 78.8646 7.90036 78.4256 8.31143C77.9865 8.7225 77.7524 9.25102 77.7524 9.89698C77.7524 10.5136 77.9865 11.0421 78.4256 11.4532C78.8646 11.8642 79.3915 12.0698 80.0354 12.0698C80.6793 12.0698 81.2354 11.8349 81.6452 11.4532C82.0843 11.0421 82.3184 10.5136 82.3184 9.89698C82.3184 9.28038 82.0843 8.75186 81.6452 8.31143C81.2647 7.90036 80.7086 7.66546 80.0354 7.66546ZM95.4018 14.3894C94.6994 14.2426 93.9676 14.1545 93.2652 14.1545C91.5383 14.1545 89.9577 14.5362 88.6406 15.2996C87.3235 16.063 86.2698 17.1201 85.5966 18.4414C84.8941 19.792 84.5429 21.3482 84.5429 23.1393C84.5429 24.6955 84.8941 26.0755 85.5673 27.3381C86.2405 28.5713 87.1771 29.5696 88.4357 30.245C89.6358 30.9203 91.0407 31.2726 92.6212 31.2726C94.4359 31.2726 95.9872 30.8909 97.2165 30.1862L97.2458 30.1569V26.6334L97.0994 26.7509C96.5433 27.1619 95.8994 27.5143 95.2555 27.7198C94.5823 27.9547 93.9676 28.0722 93.4408 28.0722C91.9188 28.0722 90.7187 27.6317 89.8699 26.6628C88.9918 25.7232 88.5528 24.4313 88.5528 22.8163C88.5528 21.1427 88.9918 19.8214 89.8992 18.8524C90.8065 17.8835 92.0066 17.3843 93.47 17.3843C94.6994 17.3843 95.9579 17.7954 97.0994 18.6175L97.2458 18.735V15.006L97.2165 14.9766C96.7189 14.7711 96.1628 14.5362 95.4018 14.3894ZM107.958 14.2719C107.022 14.2719 106.144 14.5656 105.383 15.1822C104.739 15.7107 104.3 16.4741 103.919 17.3843H103.89V14.5362H100.085V30.8029H103.89V22.4934C103.89 21.084 104.183 19.9095 104.827 19.058C105.47 18.1771 106.29 17.7367 107.285 17.7367C107.636 17.7367 107.988 17.8248 108.427 17.8835C108.836 18.0009 109.129 18.1184 109.334 18.2652L109.48 18.3827V14.5656L109.393 14.5362C109.129 14.36 108.602 14.2719 107.958 14.2719ZM118.32 14.1839C115.656 14.1839 113.52 14.9766 112.027 16.5328C110.505 18.089 109.773 20.2325 109.773 22.9338C109.773 25.4589 110.534 27.5143 111.998 29.0118C113.461 30.4799 115.451 31.2433 117.939 31.2433C120.544 31.2433 122.622 30.4505 124.115 28.8649C125.637 27.2794 126.369 25.1653 126.369 22.5521C126.369 19.9682 125.666 17.9129 124.232 16.4154C122.856 14.9179 120.837 14.1839 118.32 14.1839ZM121.364 26.6921C120.661 27.6024 119.549 28.0428 118.173 28.0428C116.798 28.0428 115.685 27.6024 114.895 26.6334C114.105 25.7232 113.724 24.4019 113.724 22.7283C113.724 20.9959 114.134 19.6746 114.895 18.735C115.685 17.7954 116.768 17.3256 118.144 17.3256C119.491 17.3256 120.544 17.766 121.305 18.6763C122.066 19.5865 122.476 20.9078 122.476 22.6402C122.417 24.4019 122.095 25.7819 121.364 26.6921ZM134.857 21.2895C133.657 20.7903 132.896 20.4086 132.545 20.0857C132.252 19.792 132.106 19.381 132.106 18.8524C132.106 18.412 132.281 17.9716 132.72 17.678C133.159 17.3843 133.657 17.2375 134.389 17.2375C135.033 17.2375 135.706 17.355 136.35 17.5311C136.994 17.7073 137.579 17.9716 138.047 18.3239L138.194 18.4414V14.8592L138.106 14.8298C137.667 14.6537 137.081 14.4775 136.379 14.3307C135.676 14.2132 135.033 14.1545 134.506 14.1545C132.691 14.1545 131.198 14.5949 130.027 15.5639C128.857 16.4741 128.301 17.7073 128.301 19.1461C128.301 19.9095 128.418 20.5848 128.681 21.1427C128.945 21.7006 129.325 22.2291 129.852 22.6695C130.379 23.0806 131.14 23.5504 132.193 23.9908C133.072 24.3725 133.745 24.6662 134.154 24.9011C134.564 25.136 134.828 25.4002 135.033 25.6057C135.179 25.8406 135.267 26.1343 135.267 26.516C135.267 27.6024 134.447 28.1309 132.779 28.1309C132.135 28.1309 131.462 28.0134 130.671 27.7492C129.881 27.4849 129.149 27.1032 128.535 26.6628L128.388 26.5453V30.2743L128.476 30.3037C129.032 30.568 129.706 30.7441 130.525 30.9497C131.345 31.0965 132.076 31.2139 132.72 31.2139C134.681 31.2139 136.291 30.7735 137.433 29.8045C138.603 28.8649 139.218 27.6611 139.218 26.1049C139.218 25.0185 138.925 24.0496 138.281 23.3155C137.433 22.6108 136.379 21.8768 134.857 21.2895ZM149.257 14.1839C146.594 14.1839 144.457 14.9766 142.965 16.5328C141.472 18.089 140.711 20.2325 140.711 22.9338C140.711 25.4589 141.472 27.5143 142.935 29.0118C144.399 30.4799 146.389 31.2433 148.877 31.2433C151.482 31.2433 153.56 30.4505 155.053 28.8649C156.575 27.2794 157.307 25.1653 157.307 22.5521C157.307 19.9682 156.604 17.9129 155.17 16.4154C153.794 14.9179 151.775 14.1839 149.257 14.1839ZM152.272 26.6921C151.57 27.6024 150.458 28.0428 149.082 28.0428C147.677 28.0428 146.594 27.6024 145.804 26.6334C145.013 25.7232 144.633 24.4019 144.633 22.7283C144.633 20.9959 145.043 19.6746 145.804 18.735C146.594 17.7954 147.677 17.3256 149.053 17.3256C150.37 17.3256 151.453 17.766 152.214 18.6763C152.975 19.5865 153.384 20.9078 153.384 22.6402C153.384 24.4019 153.004 25.7819 152.272 26.6921ZM177.649 17.678V14.5362H173.814V9.72081L173.697 9.75017L170.068 10.8366L169.98 10.8659V14.5362H164.243V12.4809C164.243 11.5413 164.478 10.8072 164.887 10.3374C165.297 9.86762 165.912 9.63272 166.673 9.63272C167.2 9.63272 167.756 9.75017 168.37 10.0144L168.517 10.1025V6.78459L168.429 6.75523C167.902 6.57906 167.2 6.46161 166.292 6.46161C165.151 6.46161 164.156 6.72587 163.248 7.1663C162.341 7.66546 161.668 8.34079 161.17 9.25102C160.673 10.1319 160.409 11.1302 160.409 12.2753V14.5362H157.746V17.6486H160.409V30.8029H164.243V17.678H169.98V26.0462C169.98 29.4816 171.59 31.2139 174.81 31.2139C175.336 31.2139 175.893 31.1258 176.419 31.0378C176.976 30.9203 177.385 30.7735 177.619 30.656L177.649 30.6267V27.4849L177.502 27.6024C177.268 27.7492 177.063 27.8666 176.712 27.9547C176.419 28.0428 176.156 28.0722 175.951 28.0722C175.19 28.0722 174.663 27.896 174.283 27.4556C173.932 27.0445 173.756 26.3692 173.756 25.3708V17.678H177.649Z" fill="#737373"/>
<path d="M0.891296 0.559631H18.8334V18.5586H0.891296V0.559631Z" fill="#F25022"/>
<path d="M20.706 0.55957H38.6482V18.5586H20.706V0.55957Z" fill="#7FBA00"/>
<path d="M0.891321 20.4378H18.8334V38.4369H0.891321V20.4378Z" fill="#00A4EF"/>
<path d="M20.706 20.4378H38.6482V38.4369H20.706V20.4378Z" fill="#FFB900"/>
</svg>
