<svg width="163" height="83" viewBox="0 0 163 83" fill="none" xmlns="http://www.w3.org/2000/svg">
<rect width="163" height="83" rx="10" fill="#FDA800"/>
<path d="M55.6962 20.3068C56.5939 20.3068 57.4576 20.4574 58.2871 20.7585C59.1223 21.0597 59.8667 21.5398 60.5201 22.1989C61.1792 22.858 61.699 23.733 62.0797 24.8239C62.4661 25.9091 62.6621 27.2415 62.6678 28.821C62.6678 30.304 62.5002 31.6278 62.165 32.7926C61.8354 33.9517 61.361 34.9375 60.7417 35.75C60.1223 36.5625 59.3752 37.1818 58.5002 37.608C57.6252 38.0284 56.6479 38.2386 55.5684 38.2386C54.4036 38.2386 53.3752 38.0142 52.4831 37.5653C51.5911 37.1108 50.8723 36.4943 50.3269 35.7159C49.7871 34.9318 49.4604 34.0511 49.3468 33.0739H52.986C53.128 33.7102 53.4263 34.2045 53.8809 34.5568C54.3354 34.9034 54.8979 35.0767 55.5684 35.0767C56.7047 35.0767 57.5684 34.5824 58.1593 33.5938C58.7502 32.5994 59.0485 31.2386 59.0542 29.5114H58.9348C58.6735 30.0227 58.3212 30.4631 57.878 30.8324C57.4348 31.196 56.9263 31.4773 56.3525 31.6761C55.7843 31.875 55.1792 31.9744 54.5371 31.9744C53.5087 31.9744 52.5911 31.733 51.7843 31.25C50.9775 30.767 50.3411 30.1023 49.8752 29.2557C49.4093 28.4091 49.1763 27.4432 49.1763 26.358C49.1706 25.1875 49.4405 24.1449 49.986 23.2301C50.5314 22.3153 51.2928 21.5994 52.2701 21.0824C53.253 20.5597 54.3951 20.3011 55.6962 20.3068ZM55.7218 23.2045C55.1479 23.2045 54.6365 23.3409 54.1877 23.6136C53.7445 23.8864 53.3922 24.2528 53.1309 24.7131C52.8752 25.1733 52.7502 25.6875 52.7559 26.2557C52.7559 26.8295 52.8809 27.3466 53.1309 27.8068C53.3865 28.2614 53.7331 28.625 54.1706 28.8977C54.6138 29.1648 55.1195 29.2983 55.6877 29.2983C56.1138 29.2983 56.5087 29.2187 56.8723 29.0597C57.236 28.9006 57.5513 28.6818 57.8184 28.4034C58.0911 28.1193 58.3042 27.7926 58.4576 27.4233C58.611 27.054 58.6877 26.6619 58.6877 26.2472C58.682 25.696 58.5513 25.1903 58.2956 24.7301C58.04 24.2699 57.6877 23.9006 57.2388 23.6222C56.79 23.3437 56.2843 23.2045 55.7218 23.2045ZM68.1416 35.6136L68.0479 36.5511C67.974 37.3011 67.8319 38.0483 67.6217 38.7926C67.4172 39.5426 67.2013 40.2216 66.974 40.8295C66.7524 41.4375 66.5734 41.9148 66.4371 42.2614H64.0848C64.17 41.9261 64.2865 41.4574 64.4342 40.8551C64.5819 40.2585 64.7212 39.5881 64.8518 38.8438C64.9825 38.0994 65.0649 37.3409 65.099 36.5682L65.1416 35.6136H68.1416ZM76.8754 38.2386C75.5629 38.2386 74.3952 38.0256 73.3725 37.5994C72.3555 37.1676 71.5572 36.5795 70.9776 35.8352C70.3981 35.0909 70.1083 34.2472 70.1083 33.304C70.1083 32.5767 70.2731 31.9091 70.6026 31.3011C70.9379 30.6875 71.3924 30.179 71.9663 29.7756C72.5401 29.3665 73.1822 29.1051 73.8924 28.9915V28.8722C72.9606 28.6847 72.2049 28.233 71.6254 27.517C71.0458 26.7955 70.756 25.9574 70.756 25.0028C70.756 24.0994 71.0202 23.2955 71.5487 22.5909C72.0771 21.8807 72.8015 21.3239 73.7219 20.9205C74.6481 20.5114 75.6992 20.3068 76.8754 20.3068C78.0515 20.3068 79.0998 20.5114 80.0202 20.9205C80.9464 21.3295 81.6737 21.8892 82.2021 22.5994C82.7305 23.304 82.9975 24.1051 83.0032 25.0028C82.9975 25.9631 82.7021 26.8011 82.1168 27.517C81.5316 28.233 80.7816 28.6847 79.8668 28.8722V28.9915C80.5657 29.1051 81.1992 29.3665 81.7674 29.7756C82.3413 30.179 82.7958 30.6875 83.131 31.3011C83.4719 31.9091 83.6452 32.5767 83.6509 33.304C83.6452 34.2472 83.3526 35.0909 82.7731 35.8352C82.1935 36.5795 81.3924 37.1676 80.3697 37.5994C79.3526 38.0256 78.1879 38.2386 76.8754 38.2386ZM76.8754 35.5284C77.4606 35.5284 77.9719 35.4233 78.4094 35.2131C78.8469 34.9972 79.1879 34.7017 79.4322 34.3267C79.6822 33.946 79.8072 33.5085 79.8072 33.0142C79.8072 32.5085 79.6793 32.0625 79.4237 31.6761C79.168 31.2841 78.8214 30.9773 78.3839 30.7557C77.9464 30.5284 77.4435 30.4148 76.8754 30.4148C76.3129 30.4148 75.81 30.5284 75.3668 30.7557C74.9237 30.9773 74.5742 31.2841 74.3185 31.6761C74.0685 32.0625 73.9435 32.5085 73.9435 33.0142C73.9435 33.5085 74.0657 33.946 74.31 34.3267C74.5543 34.7017 74.8981 34.9972 75.3413 35.2131C75.7844 35.4233 76.2958 35.5284 76.8754 35.5284ZM76.8754 27.7301C77.364 27.7301 77.7987 27.6307 78.1793 27.4318C78.56 27.233 78.8583 26.9574 79.0742 26.6051C79.2901 26.2528 79.3981 25.8466 79.3981 25.3864C79.3981 24.9318 79.2901 24.5341 79.0742 24.1932C78.8583 23.8466 78.5629 23.5767 78.1879 23.3835C77.8129 23.1847 77.3754 23.0852 76.8754 23.0852C76.381 23.0852 75.9435 23.1847 75.5629 23.3835C75.1822 23.5767 74.8839 23.8466 74.668 24.1932C74.4577 24.5341 74.3526 24.9318 74.3526 25.3864C74.3526 25.8466 74.4606 26.2528 74.6765 26.6051C74.8924 26.9574 75.1907 27.233 75.5714 27.4318C75.9521 27.6307 76.3867 27.7301 76.8754 27.7301ZM85.8712 38V35.3409L92.0842 29.5881C92.6127 29.0767 93.0558 28.6165 93.4138 28.2074C93.7774 27.7983 94.053 27.3977 94.2405 27.0057C94.428 26.608 94.5217 26.179 94.5217 25.7188C94.5217 25.2074 94.4053 24.767 94.1723 24.3977C93.9394 24.0227 93.6212 23.7358 93.2178 23.5369C92.8144 23.3324 92.357 23.2301 91.8456 23.2301C91.3115 23.2301 90.8456 23.3381 90.4479 23.554C90.0502 23.7699 89.7433 24.0795 89.5274 24.483C89.3115 24.8864 89.2036 25.3665 89.2036 25.9233H85.7007C85.7007 24.7812 85.9592 23.7898 86.4763 22.9489C86.9933 22.108 87.7178 21.4574 88.6496 20.9972C89.5814 20.5369 90.6553 20.3068 91.8712 20.3068C93.1212 20.3068 94.2092 20.5284 95.1354 20.9716C96.0672 21.4091 96.7916 22.017 97.3087 22.7955C97.8257 23.5739 98.0842 24.4659 98.0842 25.4716C98.0842 26.1307 97.9536 26.7812 97.6922 27.4233C97.4365 28.0653 96.9791 28.7784 96.32 29.5625C95.661 30.3409 94.732 31.2756 93.5331 32.3665L90.9848 34.8636V34.983H98.3144V38H85.8712ZM107.08 38.2386C105.807 38.2386 104.674 38.0199 103.68 37.5824C102.691 37.1392 101.91 36.5312 101.336 35.7585C100.768 34.9801 100.475 34.0824 100.458 33.0653H104.174C104.197 33.4915 104.336 33.8665 104.591 34.1903C104.853 34.5085 105.199 34.7557 105.631 34.9318C106.063 35.108 106.549 35.196 107.089 35.196C107.651 35.196 108.148 35.0966 108.58 34.8977C109.012 34.6989 109.35 34.4233 109.594 34.071C109.839 33.7187 109.961 33.3125 109.961 32.8523C109.961 32.3864 109.83 31.9744 109.569 31.6165C109.313 31.2528 108.944 30.9687 108.461 30.7642C107.983 30.5597 107.415 30.4574 106.756 30.4574H105.128V27.7472H106.756C107.313 27.7472 107.805 27.6506 108.231 27.4574C108.662 27.2642 108.998 26.9972 109.236 26.6562C109.475 26.3097 109.594 25.9062 109.594 25.446C109.594 25.0085 109.489 24.625 109.279 24.2955C109.074 23.9602 108.785 23.6989 108.41 23.5114C108.04 23.3239 107.608 23.2301 107.114 23.2301C106.614 23.2301 106.157 23.321 105.742 23.5028C105.327 23.679 104.995 23.9318 104.745 24.2614C104.495 24.5909 104.361 24.9773 104.344 25.4205H100.807C100.824 24.4148 101.111 23.5284 101.668 22.7614C102.225 21.9943 102.975 21.3949 103.918 20.9631C104.867 20.5256 105.938 20.3068 107.131 20.3068C108.336 20.3068 109.39 20.5256 110.293 20.9631C111.197 21.4006 111.898 21.9915 112.398 22.7358C112.904 23.4744 113.154 24.304 113.148 25.2244C113.154 26.2017 112.85 27.017 112.236 27.6705C111.628 28.3239 110.836 28.7386 109.858 28.9148V29.0511C111.143 29.2159 112.12 29.6619 112.79 30.3892C113.466 31.1108 113.802 32.0142 113.796 33.0994C113.802 34.0938 113.515 34.9773 112.935 35.75C112.361 36.5227 111.569 37.1307 110.557 37.5739C109.546 38.017 108.387 38.2386 107.08 38.2386Z" fill="white"/>
<path d="M15.6142 62V51.8182H16.8471V60.9062H21.5801V62H15.6142ZM25.3672 62.179C24.8833 62.179 24.4442 62.0878 24.0498 61.9055C23.6553 61.7199 23.3421 61.4531 23.1101 61.1051C22.8781 60.7538 22.7621 60.3295 22.7621 59.8324C22.7621 59.3949 22.8483 59.0402 23.0206 58.7685C23.193 58.4934 23.4233 58.2779 23.7117 58.1222C24 57.9664 24.3182 57.8504 24.6662 57.7741C25.0176 57.6946 25.3705 57.6316 25.7252 57.5852C26.1892 57.5256 26.5654 57.4808 26.8537 57.451C27.1454 57.4179 27.3575 57.3632 27.4901 57.2869C27.626 57.2107 27.6939 57.0781 27.6939 56.8892V56.8494C27.6939 56.3589 27.5597 55.9777 27.2912 55.706C27.0261 55.4342 26.6234 55.2983 26.0831 55.2983C25.523 55.2983 25.0839 55.4209 24.7657 55.6662C24.4475 55.9115 24.2238 56.1733 24.0945 56.4517L22.9809 56.054C23.1797 55.59 23.4449 55.2287 23.7763 54.9702C24.1111 54.7083 24.4757 54.526 24.8701 54.4233C25.2678 54.3172 25.6589 54.2642 26.0434 54.2642C26.2886 54.2642 26.5704 54.294 26.8885 54.3537C27.21 54.41 27.5199 54.5277 27.8182 54.7067C28.1198 54.8857 28.3701 55.1558 28.5689 55.517C28.7678 55.8783 28.8672 56.3622 28.8672 56.9688V62H27.6939V60.9659H27.6343C27.5547 61.1316 27.4222 61.3089 27.2366 61.4979C27.0509 61.6868 26.804 61.8475 26.4958 61.9801C26.1875 62.1127 25.8114 62.179 25.3672 62.179ZM25.5462 61.125C26.0102 61.125 26.4013 61.0339 26.7195 60.8516C27.041 60.6693 27.283 60.4339 27.4454 60.1456C27.6111 59.8572 27.6939 59.554 27.6939 59.2358V58.1619C27.6442 58.2216 27.5348 58.2763 27.3658 58.326C27.2001 58.3724 27.0079 58.4138 26.7891 58.4503C26.5737 58.4834 26.3632 58.5133 26.1577 58.5398C25.9555 58.563 25.7915 58.5829 25.6655 58.5994C25.3606 58.6392 25.0756 58.7038 24.8104 58.7933C24.5486 58.8795 24.3365 59.0104 24.1741 59.1861C24.015 59.3584 23.9354 59.5937 23.9354 59.892C23.9354 60.2997 24.0862 60.608 24.3878 60.8168C24.6928 61.0223 25.0789 61.125 25.5462 61.125ZM35.6112 58.8778V54.3636H36.7845V62H35.6112V60.7074H35.5317C35.3527 61.0952 35.0743 61.425 34.6965 61.6967C34.3186 61.9652 33.8414 62.0994 33.2647 62.0994C32.7874 62.0994 32.3631 61.995 31.9919 61.7862C31.6207 61.5741 31.329 61.2559 31.1169 60.8317C30.9048 60.4041 30.7987 59.8655 30.7987 59.2159V54.3636H31.972V59.1364C31.972 59.6932 32.1278 60.1373 32.4394 60.4688C32.7542 60.8002 33.1553 60.9659 33.6425 60.9659C33.9342 60.9659 34.2308 60.8913 34.5324 60.7422C34.8373 60.593 35.0925 60.3643 35.298 60.0561C35.5068 59.7479 35.6112 59.3551 35.6112 58.8778ZM39.8968 57.4062V62H38.7235V54.3636H39.857V55.5568H39.9565C40.1354 55.169 40.4072 54.8575 40.7718 54.6222C41.1364 54.3835 41.607 54.2642 42.1837 54.2642C42.7008 54.2642 43.1532 54.3703 43.541 54.5824C43.9288 54.7912 44.2304 55.1094 44.4458 55.5369C44.6612 55.9612 44.769 56.4981 44.769 57.1477V62H43.5957V57.2273C43.5957 56.6274 43.4399 56.16 43.1283 55.8253C42.8168 55.4872 42.3892 55.3182 41.8457 55.3182C41.4711 55.3182 41.1364 55.3994 40.8414 55.5618C40.5497 55.7242 40.3194 55.9612 40.1504 56.2727C39.9813 56.5843 39.8968 56.9621 39.8968 57.4062ZM49.5865 62.1591C48.9501 62.1591 48.3883 61.9983 47.9011 61.6768C47.4139 61.352 47.0327 60.8946 46.7577 60.3047C46.4826 59.7114 46.345 59.0104 46.345 58.2017C46.345 57.3996 46.4826 56.7036 46.7577 56.1136C47.0327 55.5237 47.4156 55.0679 47.9061 54.7464C48.3966 54.425 48.9634 54.2642 49.6064 54.2642C50.1035 54.2642 50.4963 54.3471 50.7846 54.5128C51.0763 54.6752 51.2984 54.8608 51.4508 55.0696C51.6066 55.2751 51.7276 55.4441 51.8138 55.5767H51.9132V51.8182H53.0865V62H51.953V60.8267H51.8138C51.7276 60.9659 51.605 61.1416 51.4459 61.3537C51.2868 61.5625 51.0597 61.7498 50.7648 61.9155C50.4698 62.0779 50.077 62.1591 49.5865 62.1591ZM49.7456 61.1051C50.2162 61.1051 50.6139 60.9825 50.9388 60.7372C51.2636 60.4886 51.5105 60.1456 51.6795 59.7081C51.8486 59.2673 51.9331 58.7585 51.9331 58.1818C51.9331 57.6117 51.8502 57.1129 51.6845 56.6854C51.5188 56.2545 51.2735 55.9197 50.9487 55.6811C50.6239 55.4392 50.2229 55.3182 49.7456 55.3182C49.2484 55.3182 48.8341 55.4458 48.5027 55.701C48.1746 55.9529 47.9276 56.2959 47.7619 56.7301C47.5995 57.161 47.5183 57.6449 47.5183 58.1818C47.5183 58.7254 47.6012 59.2192 47.7669 59.6634C47.9359 60.1042 48.1845 60.4555 48.5126 60.7173C48.8441 60.9759 49.255 61.1051 49.7456 61.1051ZM55.1883 62V54.3636H56.3218V55.517H56.4013C56.5406 55.1392 56.7924 54.8326 57.157 54.5973C57.5216 54.362 57.9326 54.2443 58.39 54.2443C58.4762 54.2443 58.5839 54.246 58.7131 54.2493C58.8424 54.2526 58.9402 54.2576 59.0065 54.2642V55.4574C58.9667 55.4474 58.8755 55.4325 58.733 55.4126C58.5938 55.3894 58.4463 55.3778 58.2906 55.3778C57.9193 55.3778 57.5879 55.4557 57.2962 55.6115C57.0079 55.764 56.7792 55.9761 56.6102 56.2479C56.4444 56.5163 56.3616 56.8229 56.3616 57.1676V62H55.1883ZM60.1873 62V54.3636H61.3606V62H60.1873ZM60.7839 53.0909C60.5552 53.0909 60.358 53.013 60.1922 52.8572C60.0298 52.7015 59.9486 52.5142 59.9486 52.2955C59.9486 52.0767 60.0298 51.8894 60.1922 51.7337C60.358 51.5779 60.5552 51.5 60.7839 51.5C61.0125 51.5 61.2081 51.5779 61.3705 51.7337C61.5362 51.8894 61.6191 52.0767 61.6191 52.2955C61.6191 52.5142 61.5362 52.7015 61.3705 52.8572C61.2081 53.013 61.0125 53.0909 60.7839 53.0909ZM66.5012 62.1591C65.7654 62.1591 65.1307 61.9967 64.5971 61.6719C64.0668 61.3438 63.6575 60.8864 63.3691 60.2997C63.0841 59.7098 62.9416 59.0237 62.9416 58.2415C62.9416 57.4593 63.0841 56.7699 63.3691 56.1733C63.6575 55.5734 64.0585 55.1061 64.5723 54.7713C65.0893 54.4332 65.6925 54.2642 66.3819 54.2642C66.7796 54.2642 67.1724 54.3305 67.5602 54.4631C67.948 54.5956 68.3009 54.8111 68.6191 55.1094C68.9373 55.4044 69.1909 55.7955 69.3798 56.2827C69.5687 56.7699 69.6632 57.3698 69.6632 58.0824V58.5795H63.7768V57.5653H68.47C68.47 57.1345 68.3838 56.75 68.2115 56.4119C68.0424 56.0739 67.8005 55.8071 67.4856 55.6115C67.1741 55.416 66.8062 55.3182 66.3819 55.3182C65.9146 55.3182 65.5102 55.4342 65.1688 55.6662C64.8308 55.8949 64.5706 56.1932 64.3883 56.5611C64.206 56.929 64.1149 57.3234 64.1149 57.7443V58.4205C64.1149 58.9972 64.2143 59.486 64.4132 59.8871C64.6153 60.2848 64.8954 60.5881 65.2534 60.7969C65.6113 61.0024 66.0273 61.1051 66.5012 61.1051C66.8095 61.1051 67.0879 61.062 67.3365 60.9759C67.5884 60.8864 67.8054 60.7538 67.9877 60.5781C68.17 60.3991 68.3109 60.1771 68.4103 59.9119L69.5438 60.2301C69.4245 60.6146 69.224 60.9527 68.9423 61.2443C68.6606 61.5327 68.3125 61.758 67.8982 61.9205C67.4839 62.0795 67.0183 62.1591 66.5012 62.1591ZM76.6471 56.0739L75.5931 56.3722C75.5268 56.1965 75.429 56.0258 75.2998 55.8601C75.1738 55.6911 75.0015 55.5518 74.7827 55.4425C74.564 55.3331 74.2839 55.2784 73.9425 55.2784C73.4752 55.2784 73.0857 55.3861 72.7742 55.6016C72.4659 55.8137 72.3118 56.0838 72.3118 56.4119C72.3118 56.7036 72.4179 56.9339 72.63 57.103C72.8421 57.272 73.1736 57.4129 73.6243 57.5256L74.7579 57.804C75.4406 57.9697 75.9494 58.2232 76.2841 58.5646C76.6189 58.9027 76.7863 59.3385 76.7863 59.8722C76.7863 60.3097 76.6603 60.7008 76.4084 61.0455C76.1598 61.3902 75.8118 61.6619 75.3644 61.8608C74.9169 62.0597 74.3966 62.1591 73.8033 62.1591C73.0244 62.1591 72.3798 61.9901 71.8694 61.652C71.3589 61.3139 71.0358 60.8201 70.8999 60.1705L72.0135 59.892C72.1196 60.303 72.3201 60.6113 72.6151 60.8168C72.9134 61.0223 73.3028 61.125 73.7834 61.125C74.3303 61.125 74.7645 61.009 75.086 60.777C75.4108 60.5417 75.5732 60.2599 75.5732 59.9318C75.5732 59.6667 75.4804 59.4446 75.2948 59.2656C75.1092 59.0833 74.8241 58.9474 74.4397 58.858L73.1669 58.5597C72.4676 58.3939 71.9539 58.1371 71.6257 57.7891C71.3009 57.4377 71.1385 56.9986 71.1385 56.4716C71.1385 56.0407 71.2595 55.6596 71.5015 55.3281C71.7467 54.9967 72.0798 54.7365 72.5007 54.5476C72.925 54.3587 73.4056 54.2642 73.9425 54.2642C74.6982 54.2642 75.2915 54.4299 75.7223 54.7614C76.1565 55.0928 76.4648 55.5303 76.6471 56.0739ZM82.0699 64.8636V54.3636H83.2034V55.5767H83.3426C83.4288 55.4441 83.5481 55.2751 83.7006 55.0696C83.8564 54.8608 84.0784 54.6752 84.3668 54.5128C84.6585 54.3471 85.0529 54.2642 85.55 54.2642C86.193 54.2642 86.7598 54.425 87.2503 54.7464C87.7408 55.0679 88.1237 55.5237 88.3988 56.1136C88.6738 56.7036 88.8114 57.3996 88.8114 58.2017C88.8114 59.0104 88.6738 59.7114 88.3988 60.3047C88.1237 60.8946 87.7425 61.352 87.2553 61.6768C86.7681 61.9983 86.2063 62.1591 85.5699 62.1591C85.0794 62.1591 84.6866 62.0779 84.3917 61.9155C84.0967 61.7498 83.8696 61.5625 83.7105 61.3537C83.5515 61.1416 83.4288 60.9659 83.3426 60.8267H83.2432V64.8636H82.0699ZM83.2233 58.1818C83.2233 58.7585 83.3078 59.2673 83.4769 59.7081C83.6459 60.1456 83.8928 60.4886 84.2176 60.7372C84.5425 60.9825 84.9402 61.1051 85.4108 61.1051C85.9014 61.1051 86.3107 60.9759 86.6388 60.7173C86.9703 60.4555 87.2188 60.1042 87.3846 59.6634C87.5536 59.2192 87.6381 58.7254 87.6381 58.1818C87.6381 57.6449 87.5552 57.161 87.3895 56.7301C87.2271 56.2959 86.9802 55.9529 86.6488 55.701C86.3206 55.4458 85.908 55.3182 85.4108 55.3182C84.9336 55.3182 84.5325 55.4392 84.2077 55.6811C83.8829 55.9197 83.6376 56.2545 83.4719 56.6854C83.3062 57.1129 83.2233 57.6117 83.2233 58.1818ZM90.3912 62V54.3636H91.5247V55.517H91.6042C91.7434 55.1392 91.9953 54.8326 92.3599 54.5973C92.7245 54.362 93.1355 54.2443 93.5929 54.2443C93.679 54.2443 93.7868 54.246 93.916 54.2493C94.0453 54.2526 94.1431 54.2576 94.2094 54.2642V55.4574C94.1696 55.4474 94.0784 55.4325 93.9359 55.4126C93.7967 55.3894 93.6492 55.3778 93.4934 55.3778C93.1222 55.3778 92.7908 55.4557 92.4991 55.6115C92.2108 55.764 91.9821 55.9761 91.813 56.2479C91.6473 56.5163 91.5645 56.8229 91.5645 57.1676V62H90.3912ZM98.26 62.1591C97.5706 62.1591 96.9657 61.995 96.4454 61.6669C95.9283 61.3388 95.524 60.8797 95.2323 60.2898C94.944 59.6998 94.7998 59.0104 94.7998 58.2216C94.7998 57.4261 94.944 56.7318 95.2323 56.1385C95.524 55.5452 95.9283 55.0845 96.4454 54.7564C96.9657 54.4283 97.5706 54.2642 98.26 54.2642C98.9494 54.2642 99.5526 54.4283 100.07 54.7564C100.59 55.0845 100.994 55.5452 101.283 56.1385C101.574 56.7318 101.72 57.4261 101.72 58.2216C101.72 59.0104 101.574 59.6998 101.283 60.2898C100.994 60.8797 100.59 61.3388 100.07 61.6669C99.5526 61.995 98.9494 62.1591 98.26 62.1591ZM98.26 61.1051C98.7837 61.1051 99.2146 60.9709 99.5526 60.7024C99.8907 60.4339 100.141 60.081 100.303 59.6435C100.466 59.206 100.547 58.732 100.547 58.2216C100.547 57.7112 100.466 57.2356 100.303 56.7947C100.141 56.3539 99.8907 55.9976 99.5526 55.7259C99.2146 55.4541 98.7837 55.3182 98.26 55.3182C97.7363 55.3182 97.3055 55.4541 96.9674 55.7259C96.6293 55.9976 96.3791 56.3539 96.2167 56.7947C96.0543 57.2356 95.9731 57.7112 95.9731 58.2216C95.9731 58.732 96.0543 59.206 96.2167 59.6435C96.3791 60.081 96.6293 60.4339 96.9674 60.7024C97.3055 60.9709 97.7363 61.1051 98.26 61.1051ZM106.404 62.1591C105.688 62.1591 105.071 61.9901 104.554 61.652C104.037 61.3139 103.639 60.8482 103.361 60.255C103.082 59.6617 102.943 58.9839 102.943 58.2216C102.943 57.446 103.086 56.7616 103.371 56.1683C103.659 55.5717 104.06 55.1061 104.574 54.7713C105.091 54.4332 105.694 54.2642 106.384 54.2642C106.921 54.2642 107.404 54.3636 107.835 54.5625C108.266 54.7614 108.619 55.0398 108.894 55.3977C109.169 55.7557 109.34 56.1733 109.406 56.6506H108.233C108.144 56.3026 107.945 55.9943 107.636 55.7259C107.332 55.4541 106.921 55.3182 106.404 55.3182C105.946 55.3182 105.545 55.4375 105.2 55.6761C104.859 55.9115 104.592 56.2446 104.4 56.6754C104.211 57.103 104.117 57.6051 104.117 58.1818C104.117 58.7718 104.209 59.2855 104.395 59.723C104.584 60.1605 104.849 60.5002 105.19 60.7422C105.535 60.9841 105.94 61.1051 106.404 61.1051C106.708 61.1051 106.985 61.0521 107.234 60.946C107.482 60.84 107.693 60.6875 107.865 60.4886C108.038 60.2898 108.16 60.0511 108.233 59.7727H109.406C109.34 60.2235 109.176 60.6295 108.914 60.9908C108.656 61.3487 108.313 61.6338 107.885 61.8459C107.461 62.0547 106.967 62.1591 106.404 62.1591ZM114.113 62.1591C113.377 62.1591 112.743 61.9967 112.209 61.6719C111.679 61.3438 111.27 60.8864 110.981 60.2997C110.696 59.7098 110.554 59.0237 110.554 58.2415C110.554 57.4593 110.696 56.7699 110.981 56.1733C111.27 55.5734 111.671 55.1061 112.184 54.7713C112.701 54.4332 113.305 54.2642 113.994 54.2642C114.392 54.2642 114.784 54.3305 115.172 54.4631C115.56 54.5956 115.913 54.8111 116.231 55.1094C116.549 55.4044 116.803 55.7955 116.992 56.2827C117.181 56.7699 117.275 57.3698 117.275 58.0824V58.5795H111.389V57.5653H116.082C116.082 57.1345 115.996 56.75 115.823 56.4119C115.654 56.0739 115.413 55.8071 115.098 55.6115C114.786 55.416 114.418 55.3182 113.994 55.3182C113.527 55.3182 113.122 55.4342 112.781 55.6662C112.443 55.8949 112.183 56.1932 112 56.5611C111.818 56.929 111.727 57.3234 111.727 57.7443V58.4205C111.727 58.9972 111.826 59.486 112.025 59.8871C112.227 60.2848 112.507 60.5881 112.865 60.7969C113.223 61.0024 113.639 61.1051 114.113 61.1051C114.421 61.1051 114.7 61.062 114.948 60.9759C115.2 60.8864 115.417 60.7538 115.6 60.5781C115.782 60.3991 115.923 60.1771 116.022 59.9119L117.156 60.2301C117.037 60.6146 116.836 60.9527 116.554 61.2443C116.273 61.5327 115.925 61.758 115.51 61.9205C115.096 62.0795 114.63 62.1591 114.113 62.1591ZM124.259 56.0739L123.205 56.3722C123.139 56.1965 123.041 56.0258 122.912 55.8601C122.786 55.6911 122.613 55.5518 122.395 55.4425C122.176 55.3331 121.896 55.2784 121.555 55.2784C121.087 55.2784 120.698 55.3861 120.386 55.6016C120.078 55.8137 119.924 56.0838 119.924 56.4119C119.924 56.7036 120.03 56.9339 120.242 57.103C120.454 57.272 120.786 57.4129 121.236 57.5256L122.37 57.804C123.053 57.9697 123.561 58.2232 123.896 58.5646C124.231 58.9027 124.398 59.3385 124.398 59.8722C124.398 60.3097 124.272 60.7008 124.02 61.0455C123.772 61.3902 123.424 61.6619 122.976 61.8608C122.529 62.0597 122.009 62.1591 121.415 62.1591C120.636 62.1591 119.992 61.9901 119.481 61.652C118.971 61.3139 118.648 60.8201 118.512 60.1705L119.626 59.892C119.732 60.303 119.932 60.6113 120.227 60.8168C120.525 61.0223 120.915 61.125 121.395 61.125C121.942 61.125 122.377 61.009 122.698 60.777C123.023 60.5417 123.185 60.2599 123.185 59.9318C123.185 59.6667 123.092 59.4446 122.907 59.2656C122.721 59.0833 122.436 58.9474 122.052 58.858L120.779 58.5597C120.08 58.3939 119.566 58.1371 119.238 57.7891C118.913 57.4377 118.751 56.9986 118.751 56.4716C118.751 56.0407 118.872 55.6596 119.113 55.3281C119.359 54.9967 119.692 54.7365 120.113 54.5476C120.537 54.3587 121.018 54.2642 121.555 54.2642C122.31 54.2642 122.903 54.4299 123.334 54.7614C123.769 55.0928 124.077 55.5303 124.259 56.0739ZM131.364 56.0739L130.31 56.3722C130.243 56.1965 130.145 56.0258 130.016 55.8601C129.89 55.6911 129.718 55.5518 129.499 55.4425C129.28 55.3331 129 55.2784 128.659 55.2784C128.192 55.2784 127.802 55.3861 127.491 55.6016C127.182 55.8137 127.028 56.0838 127.028 56.4119C127.028 56.7036 127.134 56.9339 127.346 57.103C127.559 57.272 127.89 57.4129 128.341 57.5256L129.474 57.804C130.157 57.9697 130.666 58.2232 131.001 58.5646C131.335 58.9027 131.503 59.3385 131.503 59.8722C131.503 60.3097 131.377 60.7008 131.125 61.0455C130.876 61.3902 130.528 61.6619 130.081 61.8608C129.633 62.0597 129.113 62.1591 128.52 62.1591C127.741 62.1591 127.096 61.9901 126.586 61.652C126.075 61.3139 125.752 60.8201 125.616 60.1705L126.73 59.892C126.836 60.303 127.037 60.6113 127.332 60.8168C127.63 61.0223 128.019 61.125 128.5 61.125C129.047 61.125 129.481 61.009 129.802 60.777C130.127 60.5417 130.29 60.2599 130.29 59.9318C130.29 59.6667 130.197 59.4446 130.011 59.2656C129.826 59.0833 129.541 58.9474 129.156 58.858L127.883 58.5597C127.184 58.3939 126.67 58.1371 126.342 57.7891C126.017 57.4377 125.855 56.9986 125.855 56.4716C125.855 56.0407 125.976 55.6596 126.218 55.3281C126.463 54.9967 126.796 54.7365 127.217 54.5476C127.641 54.3587 128.122 54.2642 128.659 54.2642C129.415 54.2642 130.008 54.4299 130.439 54.7614C130.873 55.0928 131.181 55.5303 131.364 56.0739ZM136.261 62.1591C135.525 62.1591 134.89 61.9967 134.356 61.6719C133.826 61.3438 133.417 60.8864 133.129 60.2997C132.843 59.7098 132.701 59.0237 132.701 58.2415C132.701 57.4593 132.843 56.7699 133.129 56.1733C133.417 55.5734 133.818 55.1061 134.332 54.7713C134.849 54.4332 135.452 54.2642 136.141 54.2642C136.539 54.2642 136.932 54.3305 137.32 54.4631C137.707 54.5956 138.06 54.8111 138.379 55.1094C138.697 55.4044 138.95 55.7955 139.139 56.2827C139.328 56.7699 139.423 57.3698 139.423 58.0824V58.5795H133.536V57.5653H138.229C138.229 57.1345 138.143 56.75 137.971 56.4119C137.802 56.0739 137.56 55.8071 137.245 55.6115C136.933 55.416 136.566 55.3182 136.141 55.3182C135.674 55.3182 135.27 55.4342 134.928 55.6662C134.59 55.8949 134.33 56.1932 134.148 56.5611C133.965 56.929 133.874 57.3234 133.874 57.7443V58.4205C133.874 58.9972 133.974 59.486 134.173 59.8871C134.375 60.2848 134.655 60.5881 135.013 60.7969C135.371 61.0024 135.787 61.1051 136.261 61.1051C136.569 61.1051 136.847 61.062 137.096 60.9759C137.348 60.8864 137.565 60.7538 137.747 60.5781C137.929 60.3991 138.07 60.1771 138.17 59.9119L139.303 60.2301C139.184 60.6146 138.983 60.9527 138.702 61.2443C138.42 61.5327 138.072 61.758 137.658 61.9205C137.243 62.0795 136.778 62.1591 136.261 62.1591ZM143.881 62.1591C143.245 62.1591 142.683 61.9983 142.195 61.6768C141.708 61.352 141.327 60.8946 141.052 60.3047C140.777 59.7114 140.639 59.0104 140.639 58.2017C140.639 57.3996 140.777 56.7036 141.052 56.1136C141.327 55.5237 141.71 55.0679 142.2 54.7464C142.691 54.425 143.258 54.2642 143.901 54.2642C144.398 54.2642 144.791 54.3471 145.079 54.5128C145.371 54.6752 145.593 54.8608 145.745 55.0696C145.901 55.2751 146.022 55.4441 146.108 55.5767H146.208V51.8182H147.381V62H146.247V60.8267H146.108C146.022 60.9659 145.899 61.1416 145.74 61.3537C145.581 61.5625 145.354 61.7498 145.059 61.9155C144.764 62.0779 144.371 62.1591 143.881 62.1591ZM144.04 61.1051C144.511 61.1051 144.908 60.9825 145.233 60.7372C145.558 60.4886 145.805 60.1456 145.974 59.7081C146.143 59.2673 146.227 58.7585 146.227 58.1818C146.227 57.6117 146.145 57.1129 145.979 56.6854C145.813 56.2545 145.568 55.9197 145.243 55.6811C144.918 55.4392 144.517 55.3182 144.04 55.3182C143.543 55.3182 143.128 55.4458 142.797 55.701C142.469 55.9529 142.222 56.2959 142.056 56.7301C141.894 57.161 141.813 57.6449 141.813 58.1818C141.813 58.7254 141.896 59.2192 142.061 59.6634C142.23 60.1042 142.479 60.4555 142.807 60.7173C143.138 60.9759 143.549 61.1051 144.04 61.1051Z" fill="white"/>
</svg>
