<svg width="88" height="88" viewBox="0 0 88 88" fill="none" xmlns="http://www.w3.org/2000/svg">
<path d="M83.6484 77C83.6484 75.187 82.9282 73.4482 81.6462 72.1663C80.3643 70.8843 78.6255 70.1641 76.8125 70.1641H56.3047V11.3624C56.3047 10.4663 56.1282 9.57902 55.7853 8.75117C55.4424 7.92332 54.9398 7.17111 54.3062 6.53751C53.6726 5.9039 52.9204 5.4013 52.0926 5.05841C51.2647 4.71551 50.3775 4.53904 49.4814 4.53906H11.1875C9.3745 4.53906 7.63575 5.25928 6.35376 6.54126C5.07178 7.82325 4.35156 9.562 4.35156 11.375V26.4141H18.0234V77C18.0234 78.813 18.7437 80.5518 20.0256 81.8337C21.3076 83.1157 23.0464 83.8359 24.8594 83.8359H54.8505C58.674 83.8359 61.7734 80.8233 61.7734 77H83.6484Z" fill="#EDEDED"/>
<path d="M38.5312 70.1641C36.7182 70.1641 34.9795 70.8843 33.6975 72.1663C32.4155 73.4482 31.6953 75.187 31.6953 77C31.6953 77.8977 31.5185 78.7866 31.175 79.616C30.8314 80.4454 30.3279 81.199 29.6931 81.8337C29.0583 82.4685 28.3047 82.972 27.4754 83.3156C26.646 83.6591 25.7571 83.8359 24.8594 83.8359H54.8505C58.674 83.8359 61.7734 80.8233 61.7734 77V70.1641H38.5312Z" fill="#E6E6E6"/>
<path d="M76.8125 70.1641C78.6255 70.1641 80.3643 70.8843 81.6462 72.1663C82.9282 73.4482 83.6484 75.187 83.6484 77H45.3672C45.3672 75.187 44.647 73.4482 43.365 72.1663C42.083 70.8843 40.3443 70.1641 38.5312 70.1641H76.8125Z" fill="#EDEDED"/>
<path d="M11.1875 4.53906C13.0005 4.53906 14.7393 5.25928 16.0212 6.54126C17.3032 7.82325 18.0234 9.562 18.0234 11.375V26.4141H4.35156V11.375C4.35156 9.562 5.07178 7.82325 6.35376 6.54126C7.63575 5.25928 9.3745 4.53906 11.1875 4.53906Z" fill="#E6E6E6"/>
<path d="M23.4922 30.5156H28.9609V35.9844H23.4922V30.5156Z" fill="#666666"/>
<path d="M23.4922 45.5547H28.9609V51.0234H23.4922V45.5547Z" fill="#666666"/>
<path d="M23.4922 60.5938H28.9609V66.0625H23.4922V60.5938Z" fill="#666666"/>
<path d="M50.836 11.3624V70.1641H56.3047V11.3624C56.3048 10.4663 56.1283 9.57902 55.7854 8.75117C55.4425 7.92332 54.9399 7.17111 54.3063 6.53751C53.6727 5.9039 52.9205 5.4013 52.0926 5.05841C51.2648 4.71551 50.3775 4.53904 49.4814 4.53906H44.0127C44.9087 4.53904 45.796 4.71551 46.6239 5.05841C47.4517 5.4013 48.2039 5.9039 48.8375 6.53751C49.4711 7.17111 49.9737 7.92332 50.3166 8.75117C50.6595 9.57902 50.836 10.4663 50.836 11.3624Z" fill="#E6E6E6"/>
<path d="M76.8125 70.1641H71.3438C73.1568 70.1641 74.8955 70.8843 76.1775 72.1663C77.4595 73.4482 78.1797 75.187 78.1797 77H83.6484C83.6484 75.187 82.9282 73.4482 81.6462 72.1663C80.3643 70.8843 78.6255 70.1641 76.8125 70.1641Z" fill="#E6E6E6"/>
<path d="M76.8021 12.7422H38.5417C36.2707 12.7422 34.4297 14.5832 34.4297 16.8542V38.7083C34.4297 40.9793 36.2707 42.8203 38.5417 42.8203H76.8021C79.0731 42.8203 80.9141 40.9793 80.9141 38.7083V16.8542C80.9141 14.5832 79.0731 12.7422 76.8021 12.7422Z" fill="#FD4C5C"/>
<path d="M76.8021 12.7422H75.4453V33.2396C75.4453 33.7796 75.339 34.3143 75.1324 34.8132C74.9257 35.3121 74.6228 35.7654 74.241 36.1472C73.8592 36.5291 73.4058 36.832 72.9069 37.0386C72.408 37.2452 71.8733 37.3516 71.3333 37.3516H34.4297V38.7083C34.4297 39.2483 34.536 39.783 34.7426 40.2819C34.9493 40.7808 35.2522 41.2342 35.634 41.616C36.0158 41.9978 36.4692 42.3007 36.9681 42.5074C37.467 42.714 38.0017 42.8203 38.5417 42.8203H76.8021C77.3421 42.8203 77.8768 42.714 78.3757 42.5074C78.8746 42.3007 79.3279 41.9978 79.7097 41.616C80.0916 41.2342 80.3945 40.7808 80.6011 40.2819C80.8077 39.783 80.9141 39.2483 80.9141 38.7083V16.8542C80.9141 16.3142 80.8077 15.7795 80.6011 15.2806C80.3945 14.7817 80.0916 14.3283 79.7097 13.9465C79.3279 13.5647 78.8746 13.2618 78.3757 13.0551C77.8768 12.8485 77.3421 12.7422 76.8021 12.7422Z" fill="#FD4C5C"/>
<path d="M34.4297 18.2109H80.9141V23.6797H34.4297V18.2109Z" fill="#FD4C5C"/>
<path d="M73.0955 30.5156H68.2249C66.9271 30.5156 65.875 31.5677 65.875 32.8655V35.0017C65.875 36.2995 66.9271 37.3516 68.2249 37.3516H73.0955C74.3932 37.3516 75.4453 36.2995 75.4453 35.0017V32.8655C75.4453 31.5677 74.3932 30.5156 73.0955 30.5156Z" fill="#FAB645"/>
<path d="M33.0625 61.9609H52.2031V64.6953H33.0625V61.9609Z" fill="#B3B3B3"/>
<path d="M33.0625 46.9219H52.2031V49.6562H33.0625V46.9219Z" fill="#B3B3B3"/>
</svg>
