<svg width="162" height="39" viewBox="0 0 162 39" fill="none" xmlns="http://www.w3.org/2000/svg">
<path d="M57.89 14.0318V16.1784H57.9553C58.7236 15.0291 59.9991 13.6756 62.8262 13.6756C65.0257 13.6756 66.713 14.8011 67.4361 16.5013H67.5014C68.119 15.6417 68.8271 14.9911 69.6205 14.5304C70.5595 13.9843 71.604 13.6709 72.9197 13.6709C75.8975 13.6709 78.5338 15.618 78.5338 20.5285V29.8415H73.9943V21.1792C73.9943 18.6906 73.1004 17.2517 71.2424 17.2517C69.8816 17.2517 68.8923 18.116 68.5157 19.1798C68.3852 19.5455 68.3249 20.0441 68.3249 20.462V29.8462H63.7854V20.8277C63.7854 18.7144 62.9267 17.2469 61.0938 17.2469C59.6275 17.2469 58.7085 18.3392 58.3319 19.2748C58.1712 19.6737 58.121 20.1344 58.121 20.5665V29.8415H53.5765V14.0318H57.89ZM101.965 14.0318V17.0142H102.09C102.924 14.7346 104.902 13.6756 106.64 13.6756C107.077 13.6756 107.318 13.7088 107.669 13.7753V17.9165C107.252 17.8595 106.866 17.8026 106.323 17.8026C104.355 17.8026 102.984 18.8853 102.637 20.5808C102.562 20.9322 102.537 21.3121 102.537 21.749V29.8462H97.877V14.0318H101.965ZM113.996 8.79355V13.7706H117.933V17.7978H113.996V23.7389C113.996 25.6623 114.514 26.5931 116.05 26.5931C116.773 26.5931 117.306 26.5076 117.768 26.3984L117.828 29.737C117.21 29.9555 115.894 30.1929 114.559 30.1929C112.987 30.1929 111.676 29.6753 110.878 28.8727C109.964 27.9561 109.542 26.4554 109.542 24.3183V8.79355H113.996ZM50.4129 29.8415H45.8934V8.79355H50.4129V29.8415ZM38.361 24.1948C38.361 24.4845 38.3359 24.7885 38.2506 25.0497C37.899 26.1467 36.6989 27.0728 35.2024 27.0728C33.9521 27.0728 32.9578 26.4031 32.9578 24.9832C32.9578 22.8128 35.4887 22.2097 38.366 22.2239V24.1948H38.361ZM42.8754 20.4098C42.8754 16.8242 41.2585 13.6756 35.79 13.6756C32.9829 13.6756 30.7533 14.4212 29.5381 15.0861L30.4269 17.964C31.5367 17.2992 33.3093 16.753 34.9865 16.753C37.7635 16.7483 38.2154 18.2395 38.2154 19.194V19.422C32.1644 19.4125 28.3429 21.3929 28.3429 25.4296C28.3429 27.8944 30.2863 30.2024 33.6709 30.2024C35.7548 30.2024 37.4923 29.4188 38.5368 28.1603H38.6372C38.6372 28.1603 39.3302 30.891 43.1366 29.8462C42.9357 28.7064 42.8704 27.4954 42.8704 26.0375V20.4098H42.8754ZM5.6403 8.79355C6.10731 11.0209 7.43301 17.4891 7.43301 17.4891C7.99041 20.1486 8.50261 22.9363 8.88927 25.1399H8.95958C9.3362 22.7986 9.92875 20.5808 10.5615 17.8358L12.7961 8.79355H17.7423L19.8313 18.0685C20.3787 20.6473 20.8156 22.6371 21.1621 25.0354H21.2273C21.604 22.6134 22.0961 20.5428 22.6334 17.8928L24.642 8.79355H29.3874L23.5071 29.8415C19.761 30.6156 18.3249 29.1909 17.8127 26.9303C17.3005 24.665 16.2961 20.3576 16.2961 20.3576C15.7789 17.9973 15.3772 16.3351 15.096 13.9131H15.0257C14.6239 16.3113 14.2021 17.9925 13.5794 20.3528L11.1138 29.8462C7.28739 30.5681 5.96168 29.4995 5.22853 26.5979C4.59581 24.1141 0.648834 8.7983 0.648834 8.7983H5.6403V8.79355ZM90.3446 24.1948C90.3446 24.4845 90.3195 24.7885 90.2341 25.0497C89.8826 26.1467 88.6824 27.0728 87.186 27.0728C85.9356 27.0728 84.9414 26.4031 84.9414 24.9832C84.9414 22.8128 87.4722 22.2097 90.3496 22.2239V24.1948H90.3446ZM94.859 20.4098C94.859 16.8242 93.2421 13.6756 87.7735 13.6756C84.9665 13.6756 82.7369 14.4212 81.5217 15.0861L82.4105 17.964C83.5202 17.2992 85.2929 16.753 86.9701 16.753C89.742 16.7483 90.199 18.2395 90.199 19.194V19.422C84.153 19.4125 80.3315 21.3929 80.3315 25.4296C80.3315 27.8944 82.2799 30.2024 85.6594 30.2024C87.7384 30.2024 89.4809 29.4188 90.5204 28.1603H90.6258C90.6258 28.1603 91.3188 30.891 95.1252 29.8462C94.9243 28.7064 94.859 27.4954 94.859 26.0375V20.4098Z" fill="#041E42"/>
<path d="M136.254 22.5926C136.699 23.3612 136.669 24.2191 136.194 24.6109L127.975 30.3188C127.119 30.8097 125.837 30.2146 125.112 28.9699C124.381 27.7202 124.511 26.3267 125.367 25.8358L134.467 21.6404C135.037 21.4222 135.808 21.8239 136.254 22.5926ZM147.071 22.5926C147.521 21.8239 148.287 21.4272 148.857 21.6355L157.962 25.8308C158.818 26.3218 158.943 27.7153 158.218 28.9649C157.487 30.2097 156.201 30.7998 155.35 30.3138L147.131 24.6059C146.66 24.2191 146.625 23.3563 147.071 22.5926ZM141.66 25.687C142.556 25.687 143.291 26.1432 143.392 26.7433L144.277 36.6515C144.277 37.6334 143.121 38.4367 141.665 38.4367C140.213 38.4367 139.052 37.6334 139.052 36.6515L139.933 26.7433C140.033 26.1432 140.769 25.687 141.66 25.687ZM147.131 14.3903L155.35 8.67747C156.201 8.18653 157.487 8.77665 158.218 10.0263C158.943 11.276 158.818 12.6695 157.962 13.1605L148.857 17.3608C148.287 17.569 147.516 17.1723 147.071 16.4037C146.625 15.635 146.66 14.7771 147.131 14.3903ZM134.467 17.3608L125.367 13.1605C124.516 12.6695 124.386 11.276 125.112 10.0263C125.837 8.77665 127.124 8.18653 127.975 8.67747L136.194 14.3903C136.669 14.7721 136.699 15.635 136.254 16.4037C135.808 17.1723 135.037 17.569 134.467 17.3608ZM139.933 12.2529L139.052 2.34477C139.052 1.36288 140.208 0.559509 141.665 0.559509C143.121 0.559509 144.277 1.36288 144.277 2.34477L143.392 12.2529C143.291 12.848 142.556 13.3092 141.66 13.3092C140.769 13.3092 140.033 12.848 139.933 12.2529ZM160.44 30.2791V30.0311H160.665C160.74 30.0311 160.79 30.0807 160.79 30.1551C160.79 30.2245 160.74 30.2791 160.665 30.2791H160.44ZM160.255 30.7304C160.255 30.7552 160.275 30.7799 160.305 30.7799H160.4C160.425 30.7799 160.45 30.7552 160.45 30.7304V30.4477H160.605L160.73 30.7452C160.74 30.7651 160.755 30.7799 160.775 30.7799H160.891C160.926 30.7799 160.951 30.7452 160.936 30.7105C160.891 30.6213 160.846 30.527 160.801 30.4328C160.876 30.408 160.991 30.3336 160.991 30.1551C160.991 29.9667 160.836 29.8576 160.68 29.8576H160.305C160.28 29.8576 160.255 29.8824 160.255 29.9072V30.7304ZM159.849 30.3188C159.849 29.9171 160.18 29.5898 160.585 29.5898C160.991 29.5898 161.321 29.9121 161.321 30.3188C161.321 30.7204 160.996 31.0477 160.585 31.0477C160.175 31.0477 159.849 30.7204 159.849 30.3188ZM159.674 30.3188C159.674 30.8147 160.08 31.2213 160.585 31.2213C161.086 31.2213 161.496 30.8147 161.496 30.3188C161.496 29.8229 161.086 29.4162 160.585 29.4162C160.08 29.4162 159.674 29.8229 159.674 30.3188Z" fill="#FFC124"/>
</svg>
