<svg width="163" height="83" viewBox="0 0 163 83" fill="none" xmlns="http://www.w3.org/2000/svg">
<rect width="163" height="83" rx="10" fill="#FD4C5C"/>
<path d="M55.6962 20.3068C56.5939 20.3068 57.4576 20.4574 58.2871 20.7585C59.1223 21.0597 59.8667 21.5398 60.5201 22.1989C61.1792 22.858 61.699 23.733 62.0797 24.8239C62.4661 25.9091 62.6621 27.2415 62.6678 28.821C62.6678 30.304 62.5002 31.6278 62.165 32.7926C61.8354 33.9517 61.361 34.9375 60.7417 35.75C60.1223 36.5625 59.3752 37.1818 58.5002 37.608C57.6252 38.0284 56.6479 38.2386 55.5684 38.2386C54.4036 38.2386 53.3752 38.0142 52.4831 37.5653C51.5911 37.1108 50.8723 36.4943 50.3269 35.7159C49.7871 34.9318 49.4604 34.0511 49.3468 33.0739H52.986C53.128 33.7102 53.4263 34.2045 53.8809 34.5568C54.3354 34.9034 54.8979 35.0767 55.5684 35.0767C56.7047 35.0767 57.5684 34.5824 58.1593 33.5938C58.7502 32.5994 59.0485 31.2386 59.0542 29.5114H58.9348C58.6735 30.0227 58.3212 30.4631 57.878 30.8324C57.4348 31.196 56.9263 31.4773 56.3525 31.6761C55.7843 31.875 55.1792 31.9744 54.5371 31.9744C53.5087 31.9744 52.5911 31.733 51.7843 31.25C50.9775 30.767 50.3411 30.1023 49.8752 29.2557C49.4093 28.4091 49.1763 27.4432 49.1763 26.358C49.1706 25.1875 49.4405 24.1449 49.986 23.2301C50.5314 22.3153 51.2928 21.5994 52.2701 21.0824C53.253 20.5597 54.3951 20.3011 55.6962 20.3068ZM55.7218 23.2045C55.1479 23.2045 54.6365 23.3409 54.1877 23.6136C53.7445 23.8864 53.3922 24.2528 53.1309 24.7131C52.8752 25.1733 52.7502 25.6875 52.7559 26.2557C52.7559 26.8295 52.8809 27.3466 53.1309 27.8068C53.3865 28.2614 53.7331 28.625 54.1706 28.8977C54.6138 29.1648 55.1195 29.2983 55.6877 29.2983C56.1138 29.2983 56.5087 29.2187 56.8723 29.0597C57.236 28.9006 57.5513 28.6818 57.8184 28.4034C58.0911 28.1193 58.3042 27.7926 58.4576 27.4233C58.611 27.054 58.6877 26.6619 58.6877 26.2472C58.682 25.696 58.5513 25.1903 58.2956 24.7301C58.04 24.2699 57.6877 23.9006 57.2388 23.6222C56.79 23.3437 56.2843 23.2045 55.7218 23.2045ZM68.1416 35.6136L68.0479 36.5511C67.974 37.3011 67.8319 38.0483 67.6217 38.7926C67.4172 39.5426 67.2013 40.2216 66.974 40.8295C66.7524 41.4375 66.5734 41.9148 66.4371 42.2614H64.0848C64.17 41.9261 64.2865 41.4574 64.4342 40.8551C64.5819 40.2585 64.7212 39.5881 64.8518 38.8438C64.9825 38.0994 65.0649 37.3409 65.099 36.5682L65.1416 35.6136H68.1416ZM76.8754 38.2386C75.5629 38.2386 74.3952 38.0256 73.3725 37.5994C72.3555 37.1676 71.5572 36.5795 70.9776 35.8352C70.3981 35.0909 70.1083 34.2472 70.1083 33.304C70.1083 32.5767 70.2731 31.9091 70.6026 31.3011C70.9379 30.6875 71.3924 30.179 71.9663 29.7756C72.5401 29.3665 73.1822 29.1051 73.8924 28.9915V28.8722C72.9606 28.6847 72.2049 28.233 71.6254 27.517C71.0458 26.7955 70.756 25.9574 70.756 25.0028C70.756 24.0994 71.0202 23.2955 71.5487 22.5909C72.0771 21.8807 72.8015 21.3239 73.7219 20.9205C74.6481 20.5114 75.6992 20.3068 76.8754 20.3068C78.0515 20.3068 79.0998 20.5114 80.0202 20.9205C80.9464 21.3295 81.6737 21.8892 82.2021 22.5994C82.7305 23.304 82.9975 24.1051 83.0032 25.0028C82.9975 25.9631 82.7021 26.8011 82.1168 27.517C81.5316 28.233 80.7816 28.6847 79.8668 28.8722V28.9915C80.5657 29.1051 81.1992 29.3665 81.7674 29.7756C82.3413 30.179 82.7958 30.6875 83.131 31.3011C83.4719 31.9091 83.6452 32.5767 83.6509 33.304C83.6452 34.2472 83.3526 35.0909 82.7731 35.8352C82.1935 36.5795 81.3924 37.1676 80.3697 37.5994C79.3526 38.0256 78.1879 38.2386 76.8754 38.2386ZM76.8754 35.5284C77.4606 35.5284 77.9719 35.4233 78.4094 35.2131C78.8469 34.9972 79.1879 34.7017 79.4322 34.3267C79.6822 33.946 79.8072 33.5085 79.8072 33.0142C79.8072 32.5085 79.6793 32.0625 79.4237 31.6761C79.168 31.2841 78.8214 30.9773 78.3839 30.7557C77.9464 30.5284 77.4435 30.4148 76.8754 30.4148C76.3129 30.4148 75.81 30.5284 75.3668 30.7557C74.9237 30.9773 74.5742 31.2841 74.3185 31.6761C74.0685 32.0625 73.9435 32.5085 73.9435 33.0142C73.9435 33.5085 74.0657 33.946 74.31 34.3267C74.5543 34.7017 74.8981 34.9972 75.3413 35.2131C75.7844 35.4233 76.2958 35.5284 76.8754 35.5284ZM76.8754 27.7301C77.364 27.7301 77.7987 27.6307 78.1793 27.4318C78.56 27.233 78.8583 26.9574 79.0742 26.6051C79.2901 26.2528 79.3981 25.8466 79.3981 25.3864C79.3981 24.9318 79.2901 24.5341 79.0742 24.1932C78.8583 23.8466 78.5629 23.5767 78.1879 23.3835C77.8129 23.1847 77.3754 23.0852 76.8754 23.0852C76.381 23.0852 75.9435 23.1847 75.5629 23.3835C75.1822 23.5767 74.8839 23.8466 74.668 24.1932C74.4577 24.5341 74.3526 24.9318 74.3526 25.3864C74.3526 25.8466 74.4606 26.2528 74.6765 26.6051C74.8924 26.9574 75.1907 27.233 75.5714 27.4318C75.9521 27.6307 76.3867 27.7301 76.8754 27.7301ZM85.8712 38V35.3409L92.0842 29.5881C92.6127 29.0767 93.0558 28.6165 93.4138 28.2074C93.7774 27.7983 94.053 27.3977 94.2405 27.0057C94.428 26.608 94.5217 26.179 94.5217 25.7188C94.5217 25.2074 94.4053 24.767 94.1723 24.3977C93.9394 24.0227 93.6212 23.7358 93.2178 23.5369C92.8144 23.3324 92.357 23.2301 91.8456 23.2301C91.3115 23.2301 90.8456 23.3381 90.4479 23.554C90.0502 23.7699 89.7433 24.0795 89.5274 24.483C89.3115 24.8864 89.2036 25.3665 89.2036 25.9233H85.7007C85.7007 24.7812 85.9592 23.7898 86.4763 22.9489C86.9933 22.108 87.7178 21.4574 88.6496 20.9972C89.5814 20.5369 90.6553 20.3068 91.8712 20.3068C93.1212 20.3068 94.2092 20.5284 95.1354 20.9716C96.0672 21.4091 96.7916 22.017 97.3087 22.7955C97.8257 23.5739 98.0842 24.4659 98.0842 25.4716C98.0842 26.1307 97.9536 26.7812 97.6922 27.4233C97.4365 28.0653 96.9791 28.7784 96.32 29.5625C95.661 30.3409 94.732 31.2756 93.5331 32.3665L90.9848 34.8636V34.983H98.3144V38H85.8712ZM107.08 38.2386C105.807 38.2386 104.674 38.0199 103.68 37.5824C102.691 37.1392 101.91 36.5312 101.336 35.7585C100.768 34.9801 100.475 34.0824 100.458 33.0653H104.174C104.197 33.4915 104.336 33.8665 104.591 34.1903C104.853 34.5085 105.199 34.7557 105.631 34.9318C106.063 35.108 106.549 35.196 107.089 35.196C107.651 35.196 108.148 35.0966 108.58 34.8977C109.012 34.6989 109.35 34.4233 109.594 34.071C109.839 33.7187 109.961 33.3125 109.961 32.8523C109.961 32.3864 109.83 31.9744 109.569 31.6165C109.313 31.2528 108.944 30.9687 108.461 30.7642C107.983 30.5597 107.415 30.4574 106.756 30.4574H105.128V27.7472H106.756C107.313 27.7472 107.805 27.6506 108.231 27.4574C108.662 27.2642 108.998 26.9972 109.236 26.6562C109.475 26.3097 109.594 25.9062 109.594 25.446C109.594 25.0085 109.489 24.625 109.279 24.2955C109.074 23.9602 108.785 23.6989 108.41 23.5114C108.04 23.3239 107.608 23.2301 107.114 23.2301C106.614 23.2301 106.157 23.321 105.742 23.5028C105.327 23.679 104.995 23.9318 104.745 24.2614C104.495 24.5909 104.361 24.9773 104.344 25.4205H100.807C100.824 24.4148 101.111 23.5284 101.668 22.7614C102.225 21.9943 102.975 21.3949 103.918 20.9631C104.867 20.5256 105.938 20.3068 107.131 20.3068C108.336 20.3068 109.39 20.5256 110.293 20.9631C111.197 21.4006 111.898 21.9915 112.398 22.7358C112.904 23.4744 113.154 24.304 113.148 25.2244C113.154 26.2017 112.85 27.017 112.236 27.6705C111.628 28.3239 110.836 28.7386 109.858 28.9148V29.0511C111.143 29.2159 112.12 29.6619 112.79 30.3892C113.466 31.1108 113.802 32.0142 113.796 33.0994C113.802 34.0938 113.515 34.9773 112.935 35.75C112.361 36.5227 111.569 37.1307 110.557 37.5739C109.546 38.017 108.387 38.2386 107.08 38.2386Z" fill="white"/>
<path d="M70.6531 51.8182H71.8861V58.5597C71.8861 59.2557 71.722 59.8771 71.3939 60.424C71.0691 60.9676 70.61 61.3968 70.0168 61.7116C69.4235 62.0232 68.7275 62.179 67.9287 62.179C67.1299 62.179 66.4339 62.0232 65.8406 61.7116C65.2474 61.3968 64.7867 60.9676 64.4585 60.424C64.1337 59.8771 63.9713 59.2557 63.9713 58.5597V51.8182H65.2043V58.4602C65.2043 58.9574 65.3136 59.3999 65.5324 59.7876C65.7511 60.1721 66.0627 60.4754 66.4671 60.6974C66.8747 60.9162 67.3619 61.0256 67.9287 61.0256C68.4955 61.0256 68.9827 60.9162 69.3903 60.6974C69.798 60.4754 70.1096 60.1721 70.325 59.7876C70.5438 59.3999 70.6531 58.9574 70.6531 58.4602V51.8182ZM79.3883 56.0739L78.3343 56.3722C78.268 56.1965 78.1702 56.0258 78.041 55.8601C77.915 55.6911 77.7427 55.5518 77.5239 55.4425C77.3052 55.3331 77.0251 55.2784 76.6837 55.2784C76.2164 55.2784 75.827 55.3861 75.5154 55.6016C75.2072 55.8137 75.053 56.0838 75.053 56.4119C75.053 56.7036 75.1591 56.9339 75.3712 57.103C75.5833 57.272 75.9148 57.4129 76.3655 57.5256L77.4991 57.804C78.1818 57.9697 78.6906 58.2232 79.0253 58.5646C79.3601 58.9027 79.5275 59.3385 79.5275 59.8722C79.5275 60.3097 79.4015 60.7008 79.1496 61.0455C78.9011 61.3902 78.553 61.6619 78.1056 61.8608C77.6582 62.0597 77.1378 62.1591 76.5445 62.1591C75.7656 62.1591 75.121 61.9901 74.6106 61.652C74.1002 61.3139 73.777 60.8201 73.6411 60.1705L74.7547 59.892C74.8608 60.303 75.0613 60.6113 75.3563 60.8168C75.6546 61.0223 76.044 61.125 76.5246 61.125C77.0715 61.125 77.5057 61.009 77.8272 60.777C78.152 60.5417 78.3144 60.2599 78.3144 59.9318C78.3144 59.6667 78.2216 59.4446 78.036 59.2656C77.8504 59.0833 77.5654 58.9474 77.1809 58.858L75.9082 58.5597C75.2088 58.3939 74.6951 58.1371 74.367 57.7891C74.0421 57.4377 73.8797 56.9986 73.8797 56.4716C73.8797 56.0407 74.0007 55.6596 74.2427 55.3281C74.4879 54.9967 74.821 54.7365 75.242 54.5476C75.6662 54.3587 76.1468 54.2642 76.6837 54.2642C77.4394 54.2642 78.0327 54.4299 78.4636 54.7614C78.8977 55.0928 79.206 55.5303 79.3883 56.0739ZM84.2853 62.1591C83.5495 62.1591 82.9148 61.9967 82.3812 61.6719C81.8509 61.3438 81.4416 60.8864 81.1532 60.2997C80.8682 59.7098 80.7257 59.0237 80.7257 58.2415C80.7257 57.4593 80.8682 56.7699 81.1532 56.1733C81.4416 55.5734 81.8426 55.1061 82.3564 54.7713C82.8734 54.4332 83.4766 54.2642 84.166 54.2642C84.5637 54.2642 84.9565 54.3305 85.3443 54.4631C85.7321 54.5956 86.0851 54.8111 86.4032 55.1094C86.7214 55.4044 86.975 55.7955 87.1639 56.2827C87.3528 56.7699 87.4473 57.3698 87.4473 58.0824V58.5795H81.5609V57.5653H86.2541C86.2541 57.1345 86.1679 56.75 85.9956 56.4119C85.8265 56.0739 85.5846 55.8071 85.2697 55.6115C84.9582 55.416 84.5903 55.3182 84.166 55.3182C83.6987 55.3182 83.2943 55.4342 82.9529 55.6662C82.6149 55.8949 82.3547 56.1932 82.1724 56.5611C81.9901 56.929 81.899 57.3234 81.899 57.7443V58.4205C81.899 58.9972 81.9984 59.486 82.1973 59.8871C82.3994 60.2848 82.6795 60.5881 83.0375 60.7969C83.3954 61.0024 83.8114 61.1051 84.2853 61.1051C84.5936 61.1051 84.872 61.062 85.1206 60.9759C85.3725 60.8864 85.5895 60.7538 85.7718 60.5781C85.9541 60.3991 86.095 60.1771 86.1944 59.9119L87.3279 60.2301C87.2086 60.6146 87.0081 60.9527 86.7264 61.2443C86.4447 61.5327 86.0967 61.758 85.6824 61.9205C85.2681 62.0795 84.8024 62.1591 84.2853 62.1591ZM89.0221 62V54.3636H90.1556V55.517H90.2351C90.3743 55.1392 90.6262 54.8326 90.9908 54.5973C91.3554 54.362 91.7664 54.2443 92.2238 54.2443C92.3099 54.2443 92.4177 54.246 92.5469 54.2493C92.6762 54.2526 92.774 54.2576 92.8402 54.2642V55.4574C92.8005 55.4474 92.7093 55.4325 92.5668 55.4126C92.4276 55.3894 92.2801 55.3778 92.1243 55.3778C91.7531 55.3778 91.4217 55.4557 91.13 55.6115C90.8417 55.764 90.613 55.9761 90.4439 56.2479C90.2782 56.5163 90.1954 56.8229 90.1954 57.1676V62H89.0221ZM99.4301 56.0739L98.3762 56.3722C98.3099 56.1965 98.2121 56.0258 98.0828 55.8601C97.9569 55.6911 97.7845 55.5518 97.5658 55.4425C97.347 55.3331 97.067 55.2784 96.7256 55.2784C96.2583 55.2784 95.8688 55.3861 95.5573 55.6016C95.249 55.8137 95.0949 56.0838 95.0949 56.4119C95.0949 56.7036 95.201 56.9339 95.4131 57.103C95.6252 57.272 95.9567 57.4129 96.4074 57.5256L97.5409 57.804C98.2237 57.9697 98.7325 58.2232 99.0672 58.5646C99.402 58.9027 99.5693 59.3385 99.5693 59.8722C99.5693 60.3097 99.4434 60.7008 99.1915 61.0455C98.9429 61.3902 98.5949 61.6619 98.1475 61.8608C97.7 62.0597 97.1797 62.1591 96.5864 62.1591C95.8075 62.1591 95.1629 61.9901 94.6524 61.652C94.142 61.3139 93.8189 60.8201 93.683 60.1705L94.7966 59.892C94.9027 60.303 95.1032 60.6113 95.3982 60.8168C95.6965 61.0223 96.0859 61.125 96.5665 61.125C97.1134 61.125 97.5476 61.009 97.8691 60.777C98.1939 60.5417 98.3563 60.2599 98.3563 59.9318C98.3563 59.6667 98.2635 59.4446 98.0779 59.2656C97.8923 59.0833 97.6072 58.9474 97.2228 58.858L95.95 58.5597C95.2507 58.3939 94.737 58.1371 94.4088 57.7891C94.084 57.4377 93.9216 56.9986 93.9216 56.4716C93.9216 56.0407 94.0426 55.6596 94.2845 55.3281C94.5298 54.9967 94.8629 54.7365 95.2838 54.5476C95.7081 54.3587 96.1887 54.2642 96.7256 54.2642C97.4813 54.2642 98.0746 54.4299 98.5054 54.7614C98.9396 55.0928 99.2479 55.5303 99.4301 56.0739Z" fill="white"/>
</svg>
