<svg width="19" height="13" viewBox="0 0 19 13" fill="none" xmlns="http://www.w3.org/2000/svg">
<path d="M0.392303 1.04278C2.96897 3.0346 7.49021 6.53881 8.81906 7.63143C8.99745 7.7789 9.18879 7.85387 9.38742 7.85387C9.58565 7.85387 9.77665 7.7796 9.95464 7.63283C11.2846 6.53914 15.8059 3.0346 18.3826 1.04278C18.543 0.919011 18.5675 0.701458 18.4376 0.550141C18.1373 0.200483 17.6897 0 17.2099 0H1.56491C1.08518 0 0.637503 0.200484 0.337301 0.550175C0.207423 0.701458 0.231881 0.919011 0.392303 1.04278Z" fill="#32324B"/>
<path d="M18.5472 2.1202C18.4085 2.06129 18.2454 2.08184 18.1301 2.17181C15.2726 4.38288 11.6257 7.21703 10.4783 8.16078C9.83427 8.6914 8.94048 8.6914 8.29498 8.16007C7.07195 7.15424 2.97657 3.97636 0.643965 2.17177C0.527837 2.08181 0.364371 2.06196 0.226865 2.12016C0.0886267 2.17877 0 2.30498 0 2.44408V11.4223C0 12.2099 0.701644 12.8504 1.56452 12.8504H17.2096C18.0724 12.8504 18.7741 12.2099 18.7741 11.4223V2.44408C18.7741 2.30498 18.6854 2.17844 18.5472 2.1202Z" fill="#32324B"/>
</svg>
